<?xml version="1.0" encoding="utf-8"?>
<!-- Generator: Adobe Illustrator 22.0.1, SVG Export Plug-In . SVG Version: 6.00 Build 0)  -->
<svg version="1.1" id="Layer_1" xmlns="http://www.w3.org/2000/svg" xmlns:xlink="http://www.w3.org/1999/xlink" x="0px" y="0px"
	 viewBox="0 0 226.8 404.6" style="enable-background:new 0 0 226.8 404.6;" xml:space="preserve">
<style type="text/css">
	.st0{fill:#F0CE42;}
	.st1{fill:#F7ECBF;}
	.st2{fill:#F8ADA7;}
	.st3{fill:#FAF5E3;}
	.st4{fill:#907A68;}
</style>
<g>
	<polygon class="st0" points="156.4,-5.5 73,-5.5 28.9,369.1 114.7,369.1 200.4,369.1 	"/>
	<ellipse class="st1" cx="114.7" cy="369.1" rx="85.7" ry="23.7"/>
</g>
<path class="st2" d="M-342.9,70.7c1.1,3-0.5,6.3-3.5,7.4c-3,1.1-6.3-0.5-7.4-3.5"/>
<rect x="-375.6" y="73.9" transform="matrix(0.9418 -0.3363 0.3363 0.9418 -50.8039 -120.2993)" class="st1" width="5.7" height="25.2"/>
<polyline class="st1" points="-337.8,60.7 -329.3,84.4 -334.7,86.3 "/>
<line class="st1" x1="-334.7" y1="86.3" x2="-343.1" y2="62.6"/>
<path class="st3" d="M-326.1,64.7l-45.2,16.1c-3.2,1.1-6.7-0.5-7.9-3.7l-9-25.2l45.1-16.1c3.2-1.2,6.8,0.5,7.9,3.8L-326.1,64.7z"/>
<rect x="-366.4" y="70.7" transform="matrix(0.9418 -0.3363 0.3363 0.9418 -49.18 -117.4264)" class="st3" width="5.7" height="25.2"/>
<path class="st4" d="M-379.3,47.1l-0.1-0.3c-0.6-1.8-2.6-2.7-4.4-2.1l-12.1,4.3c-1.8,0.6-2.7,2.6-2.1,4.4l0.1,0.3l-6.5,2.3
	c0,0,3.3,5,7.2-0.6l4.5,12.7c1.5,4.2,6.1,6.3,10.2,4.9l3.6-1.3c4.2-1.5,6.3-6.1,4.9-10.2l-4.5-12.7c6.5,1.8,5.9-4.1,5.9-4.1
	L-379.3,47.1z"/>
<path class="st4" d="M-343,35.8l-15.3,5.5c1.4,1.2,3,2.2,4.5,3.1c1.9,1.1,3.8,2.2,6,2.6c3.4,0.6,6.8-0.8,9.8-2.6
	c1.3-0.8,2.6-1.7,3.6-2.9l-0.7-1.9C-336.2,36.4-339.7,34.7-343,35.8z"/>
<path class="st4" d="M-357.4,52.9c1.3,1,2.5,2,3.5,3.3c1,1.3,1.6,2.9,1.7,4.5c0.1,2.8-1.8,5.5-4.4,6.7c-2.6,1.2-5.7,0.9-8.2-0.4
	c-2.5-1.3-4.5-3.5-5.8-6c-0.9-1.7-1.6-3.6-1.6-5.5c-0.1-1.9,0.5-3.9,1.8-5.4C-367.1,46.4-360.4,50.7-357.4,52.9z"/>
<path class="st3" d="M-404.4,56.1c0,0,3.3,5,7.2-0.6l3.1,8.6"/>
<g>
	<path class="st2" d="M126.1,223.9c1.1,3-0.5,6.3-3.5,7.4c-3,1.1-6.3-0.5-7.4-3.5c-1.1-3,0.5-6.3,3.5-7.4
		C121.7,219.3,125.1,220.8,126.1,223.9z"/>
	
		<rect x="93.5" y="227.1" transform="matrix(0.9418 -0.3363 0.3363 0.9418 -74.9872 46.364)" class="st1" width="5.7" height="25.2"/>
	
		<rect x="130" y="214.1" transform="matrix(0.9418 -0.3363 0.3363 0.9418 -68.4832 57.8736)" class="st1" width="5.7" height="25.2"/>
	<path class="st3" d="M143,217.9L97.8,234c-3.2,1.1-6.7-0.5-7.9-3.7l-9-25.2l45.1-16.1c3.2-1.2,6.8,0.5,7.9,3.8L143,217.9z"/>
	
		<rect x="102.6" y="223.8" transform="matrix(0.9418 -0.3363 0.3363 0.9418 -73.3633 49.237)" class="st3" width="5.7" height="25.2"/>
	
		<rect x="139.1" y="210.8" transform="matrix(0.9418 -0.3363 0.3363 0.9418 -66.8583 60.7453)" class="st3" width="5.7" height="25.2"/>
	<path class="st4" d="M89.8,200.3l-0.1-0.3c-0.6-1.8-2.6-2.7-4.4-2.1l-12.1,4.3c-1.8,0.6-2.7,2.6-2.1,4.4l0.1,0.3l-6.5,2.3
		c0,0,3.3,5,7.2-0.6l4.5,12.7c1.5,4.2,6.1,6.3,10.2,4.9l3.6-1.3c4.2-1.5,6.3-6.1,4.9-10.2l-4.5-12.7c6.5,1.8,5.9-4.1,5.9-4.1
		L89.8,200.3z"/>
	<path class="st4" d="M126.1,189l-15.3,5.5c1.4,1.2,3,2.2,4.5,3.1c1.9,1.1,3.8,2.2,6,2.6c3.4,0.6,6.8-0.8,9.8-2.6
		c1.3-0.8,2.6-1.7,3.6-2.9l-0.7-1.9C132.9,189.5,129.3,187.8,126.1,189z"/>
	<path class="st4" d="M111.7,206.1c1.3,1,2.5,2,3.5,3.3c1,1.3,1.6,2.9,1.7,4.5c0.1,2.8-1.8,5.5-4.4,6.7c-2.6,1.2-5.7,0.9-8.2-0.4
		c-2.5-1.3-4.5-3.5-5.8-6c-0.9-1.7-1.6-3.6-1.6-5.5c-0.1-1.9,0.5-3.9,1.8-5.4C102,199.5,108.7,203.8,111.7,206.1z"/>
	<path class="st3" d="M71,206.6l0.1,0.3l-6.5,2.3c0,0,3.3,5,7.2-0.6l3.1,8.6c2.1-1,3.9-2.7,4.8-4.8c0.5-1.2,0.8-2.4,0.8-3.7
		c0.1-1.9-0.3-3.9-1-5.7c-0.4-1-0.9-1.8-1.5-2.6l-4.8,1.7C71.3,202.9,70.4,204.8,71,206.6z"/>
</g>
</svg>
