<?xml version="1.0" encoding="UTF-8"?>
<svg width="512px" height="440px" viewBox="0 0 512 440" version="1.1" xmlns="http://www.w3.org/2000/svg" xmlns:xlink="http://www.w3.org/1999/xlink">
    <!-- Generator: Sketch 52.6 (67491) - http://www.bohemiancoding.com/sketch -->
    <title>comments</title>
    <desc>Created with Sketch.</desc>
    <g id="Page-1" stroke="none" stroke-width="1" fill="none" fill-rule="evenodd">
        <g id="comments" fill-rule="nonzero">
            <path d="M477.364,91.481 C454.525,63.409 423.5,41.233 384.292,24.959 C345.084,8.685 302.256,0.549 255.813,0.549 C209.371,0.549 166.544,8.685 127.335,24.959 C88.126,41.233 57.102,63.405 34.261,91.481 C11.419,119.555 0,150.15 0,183.269 C0,211.818 8.61,238.568 25.837,263.501 C43.064,288.435 66.615,309.375 96.501,326.314 C94.405,333.925 91.931,341.156 89.075,348.014 C86.22,354.865 83.651,360.481 81.367,364.861 C79.081,369.235 75.991,374.091 72.086,379.416 C68.187,384.748 65.237,388.509 63.238,390.699 C61.241,392.889 57.958,396.5 53.387,401.547 C48.822,406.588 45.87,409.877 44.539,411.4 C44.346,411.497 43.586,412.348 42.254,413.974 C40.923,415.589 40.255,416.393 40.255,416.393 L38.542,418.963 C37.589,420.383 37.161,421.29 37.255,421.666 C37.351,422.05 37.161,423.001 36.685,424.52 C36.208,426.046 36.257,427.189 36.827,427.949 L36.827,428.236 C37.589,431.47 39.11,434.089 41.394,436.087 C43.678,438.079 46.252,439.078 49.104,439.078 L50.533,439.078 C62.908,437.552 73.756,435.465 83.081,432.799 C132.951,420.048 176.73,397.017 214.415,363.705 C228.689,365.228 242.489,365.988 255.811,365.988 C302.253,365.988 345.082,357.853 384.29,341.574 C423.498,325.298 454.523,303.13 477.362,275.057 C500.205,246.985 511.625,216.387 511.625,183.268 C511.626,150.154 500.207,119.555 477.364,91.481 Z" id="Path" fill="#000000"></path>
            <path d="M445.244,256.075 C425.348,278.531 398.511,296.378 364.727,309.604 C330.943,322.827 294.634,329.446 255.806,329.446 C244.197,329.446 231.826,328.686 218.693,327.16 L202.419,325.452 L190.142,336.304 C166.734,356.862 140.56,373.133 111.629,385.125 C120.383,369.711 127.045,353.34 131.615,336.023 L139.323,308.611 L114.485,294.341 C89.741,280.248 70.567,263.548 56.955,244.227 C43.345,224.912 36.543,204.589 36.543,183.273 C36.543,157.196 46.488,132.93 66.377,110.47 C86.272,88.012 113.106,70.167 146.892,56.939 C180.678,43.71 216.981,37.09 255.812,37.09 C294.64,37.09 330.942,43.707 364.726,56.935 C398.509,70.164 425.346,88.008 445.243,110.466 C465.133,132.926 475.077,157.193 475.077,183.268 C475.077,209.343 465.133,233.615 445.244,256.075 Z" id="Path" fill="#FFFFFF"></path>
        </g>
    </g>
</svg>