<?xml version="1.0" encoding="UTF-8"?>
<svg width="472px" height="416px" viewBox="0 0 472 416" version="1.1" xmlns="http://www.w3.org/2000/svg" xmlns:xlink="http://www.w3.org/1999/xlink">
    <!-- Generator: Sketch 52.6 (67491) - http://www.bohemiancoding.com/sketch -->
    <title>heart--liked</title>
    <desc>Created with Sketch.</desc>
    <g id="Page-1" stroke="none" stroke-width="1" fill="none" fill-rule="evenodd">
        <g id="heart--liked">
            <path d="M433.601,39.001 C408.901,14.301 376.201,0.801 341.301,0.801 C306.401,0.801 273.601,14.401 248.901,39.101 L236.001,52.001 L222.901,38.901 C198.201,14.201 165.301,0.501 130.401,0.501 C95.601,0.501 62.801,14.101 38.201,38.701 C13.501,63.401 -0.099,96.201 0.001,131.101 C0.001,166.001 13.701,198.701 38.401,223.401 L226.201,411.201 C228.801,413.801 232.301,415.201 235.701,415.201 C239.101,415.201 242.601,413.901 245.201,411.301 L433.401,223.801 C458.101,199.101 471.701,166.301 471.701,131.401 C471.801,96.501 458.301,63.701 433.601,39.001 Z" id="stroke" fill="#000000"></path>
            <path d="M414.401,204.701 L235.701,382.701 L57.401,204.401 C37.801,184.801 27.001,158.801 27.001,131.101 C27.001,103.401 37.701,77.401 57.301,57.901 C76.801,38.401 102.801,27.601 130.401,27.601 C158.101,27.601 184.201,38.401 203.801,58.001 L226.401,80.601 C231.701,85.901 240.201,85.901 245.501,80.601 L267.901,58.201 C287.501,38.601 313.601,27.801 341.201,27.801 C368.801,27.801 394.801,38.601 414.401,58.101 C434.001,77.701 444.701,103.701 444.701,131.401 C444.801,159.101 434.001,185.101 414.401,204.701 Z" id="fill" fill="#F5458F"></path>
        </g>
    </g>
</svg>