<?xml version="1.0" encoding="UTF-8"?>
<svg width="478px" height="428px" viewBox="0 0 478 428" version="1.1" xmlns="http://www.w3.org/2000/svg" xmlns:xlink="http://www.w3.org/1999/xlink">
    <!-- Generator: Sketch 52.5 (67469) - http://www.bohemiancoding.com/sketch -->
    <title>heart</title>
    <desc>Created with Sketch.</desc>
    <g id="heart" stroke="none" stroke-width="1" fill="none" fill-rule="evenodd">
        <path d="M436.601,44.001 C411.901,19.301 379.201,5.801 344.301,5.801 C309.401,5.801 276.601,19.401 251.901,44.101 L239.001,57.001 L225.901,43.901 C201.201,19.201 168.301,5.501 133.401,5.501 C98.601,5.501 65.801,19.101 41.201,43.701 C16.501,68.401 2.901,101.201 3.001,136.101 C3.001,171.001 16.701,203.701 41.401,228.401 L229.201,416.201 C231.801,418.801 235.301,420.201 238.701,420.201 C242.101,420.201 245.601,418.901 248.201,416.301 L436.401,228.801 C461.101,204.101 474.701,171.301 474.701,136.401 C474.801,101.501 461.301,68.701 436.601,44.001 Z" id="stroke" fill="#000000" fill-rule="nonzero"></path>
        <path d="M417.401,209.701 L238.701,387.701 L60.401,209.401 C40.801,189.801 30.001,163.801 30.001,136.101 C30.001,108.401 40.701,82.401 60.301,62.901 C79.801,43.401 105.801,32.601 133.401,32.601 C161.101,32.601 187.201,43.401 206.801,63.001 L229.401,85.601 C234.701,90.901 243.201,90.901 248.501,85.601 L270.901,63.201 C290.501,43.601 316.601,32.801 344.201,32.801 C371.801,32.801 397.801,43.601 417.401,63.101 C437.001,82.701 447.701,108.701 447.701,136.401 C447.801,164.101 437.001,190.101 417.401,209.701 Z" id="fill" fill="#FFFFFF" fill-rule="nonzero"></path>
    </g>
</svg>