<?xml version="1.0" encoding="UTF-8"?>
<svg width="354px" height="324px" viewBox="0 0 354 324" version="1.1" xmlns="http://www.w3.org/2000/svg" xmlns:xlink="http://www.w3.org/1999/xlink">
    <!-- Generator: Sketch 53.2 (72643) - https://sketchapp.com -->
    <title>meta</title>
    <desc>Created with Sketch.</desc>
    <defs>
        <circle id="path-1" cx="177" cy="162" r="142"></circle>
        <filter x="-9.5%" y="-5.3%" width="119.0%" height="119.0%" filterUnits="objectBoundingBox" id="filter-2">
            <feOffset dx="0" dy="12" in="SourceAlpha" result="shadowOffsetOuter1"></feOffset>
            <feGaussianBlur stdDeviation="7" in="shadowOffsetOuter1" result="shadowBlurOuter1"></feGaussianBlur>
            <feColorMatrix values="0 0 0 0 0   0 0 0 0 0   0 0 0 0 0  0 0 0 0.134451486 0" type="matrix" in="shadowBlurOuter1"></feColorMatrix>
        </filter>
    </defs>
    <g id="meta" stroke="none" stroke-width="1" fill="none" fill-rule="evenodd">
        <g id="Oval">
            <use fill="black" fill-opacity="1" filter="url(#filter-2)" xlink:href="#path-1"></use>
            <use fill="#FFFFFF" fill-rule="evenodd" xlink:href="#path-1"></use>
        </g>
        <g id="email" transform="translate(106.000000, 98.000000)" fill-rule="nonzero">
            <path d="M135.455338,127.918478 L21.0477905,127.918478 C17.4336548,127.918478 14.5031281,124.978261 14.5031281,121.352174 L14.5031281,6.56630428 C14.5031281,2.94021732 17.4336548,-2.84217094e-14 21.0477905,-2.84217094e-14 L135.455338,-2.84217094e-14 C139.069473,-2.84217094e-14 142,2.94021732 142,6.56630428 L142,121.352174 C142,124.978261 139.069473,127.918478 135.455338,127.918478 Z" id="Path" fill="#E7E7E7"></path>
            <path d="M142,6.56521739 L142,121.353261 C142,124.978261 139.070557,127.917391 135.454254,127.917391 L127.52504,127.917391 C131.142425,127.917391 134.070785,124.978261 134.070785,121.353261 L134.070785,6.56521739 C134.070785,2.94021732 131.142425,0.00108695652 127.52504,0.00108695652 L135.454254,0.00108695652 C139.070557,0.00108695652 142,2.94021732 142,6.56521739 L142,6.56521739 Z" id="Path" fill="#CECECE"></path>
            <path d="M142,22.4021738 L14.5042114,22.4021738 L14.5042114,6.56630428 C14.5042114,2.94021732 17.4336548,0 21.0488738,0 L135.455338,0 C139.070557,0 142,2.94021732 142,6.56630428 L142,22.4021738 Z" id="Path" fill="#64DCFC"></path>
            <path d="M142,6.56521739 L142,22.4021738 L134.070785,22.4021738 L134.070785,6.56521739 C134.070785,2.94021732 131.142425,0.00108695652 127.52504,0.00108695652 L135.454254,0.00108695652 C139.070557,0.00108695652 142,2.94021732 142,6.56521739 Z" id="Path" fill="#00D1FC"></path>
            <path d="M32.4459686,11.2010869 C32.4459686,13.473913 30.6085662,15.3173913 28.3432311,15.3173913 C26.0768129,15.3173913 24.2404938,13.473913 24.2404938,11.2010869 C24.2404938,8.92717384 26.0768129,7.08478275 28.3432311,7.08478275 C30.6085662,7.08478275 32.4459686,8.92717384 32.4459686,11.2010869 Z" id="Path" fill="#FF5770"></path>
            <path d="M48.2913972,11.2010869 C48.2913972,13.473913 46.4539948,15.3173913 44.1886597,15.3173913 C41.9222412,15.3173913 40.0859222,13.473913 40.0859222,11.2010869 C40.0859222,8.92717384 41.9222412,7.08478275 44.1886597,7.08478275 C46.4539948,7.08478275 48.2913972,8.92717384 48.2913972,11.2010869 Z" id="Path" fill="#FFD86E"></path>
            <path d="M64.1368255,11.2010869 C64.1368255,13.473913 62.2994231,15.3173913 60.0340883,15.3173913 C57.7676695,15.3173913 55.9302672,13.473913 55.9302672,11.2010869 C55.9302672,8.92717384 57.7676695,7.08478275 60.0340883,7.08478275 C62.2994231,7.08478275 64.1368255,8.92717384 64.1368255,11.2010869 Z" id="Path" fill="#80E0DC"></path>
            <path d="M32.4448853,11.2021738 C32.4448853,13.4749999 30.6096498,15.3163044 28.3443146,15.3163044 C27.2468568,15.3163044 26.2490691,14.8847827 25.5134584,14.1782609 C27.7332917,14.1304348 29.5208587,12.3086957 29.5208587,10.0673914 C29.5208587,8.89239123 29.0311736,7.83695638 28.2478941,7.08804341 C28.2793122,7.08586963 28.3128969,7.08586963 28.3443146,7.08586963 C30.6096498,7.08586963 32.4448853,8.92717384 32.4448853,11.2021738 Z" id="Path" fill="#FF435F"></path>
            <path d="M48.2903139,11.2021738 C48.2903139,13.4749999 46.4550781,15.3163044 44.1875764,15.3163044 C43.0901185,15.3163044 42.0944977,14.8847827 41.3567201,14.1782609 C43.5798033,14.1304348 45.3662873,12.3086957 45.3662873,10.0673914 C45.3662873,8.89239123 44.8776855,7.83695638 44.0944061,7.08804341 C44.1247405,7.08586963 44.1561586,7.08586963 44.1875764,7.08586963 C46.4550781,7.08586963 48.2903139,8.92717384 48.2903139,11.2021738 Z" id="Path" fill="#FFB509"></path>
            <path d="M64.1368255,11.2021738 C64.1368255,13.4749999 62.2983398,15.3163044 60.0340883,15.3163044 C58.9366302,15.3163044 57.9410094,14.8847827 57.2032317,14.1782609 C59.4252319,14.1304348 61.209549,12.3086957 61.209549,10.0673914 C61.209549,8.89239123 60.7209473,7.83695638 59.9376678,7.08804341 C59.9680022,7.08586963 60.0026702,7.08586963 60.0340883,7.08586963 C62.2983398,7.08586963 64.1368255,8.92717384 64.1368255,11.2021738 Z" id="Path" fill="#00A8B0"></path>
            <path d="M125.985565,94.5347826 L64.9916078,94.5347826 C62.9613647,94.5347826 61.3157195,92.8826087 61.3157195,90.845652 L61.3157195,50.7815218 C61.3157195,48.7445651 62.9613647,47.0934784 64.9916078,47.0934784 L125.985565,47.0934784 C128.015808,47.0934784 129.661453,48.7445651 129.661453,50.7815218 L129.661453,90.845652 C129.661453,92.8826087 128.015808,94.5347826 125.985565,94.5347826 Z" id="Path" fill="#FF5770"></path>
            <path d="M129.66037,50.7815218 L129.66037,90.845652 C129.66037,92.8826087 128.014725,94.5336957 125.984482,94.5336957 L121.522064,94.5336957 C123.552307,94.5336957 125.197952,92.8826087 125.197952,90.845652 L125.197952,50.7815218 C125.197952,48.7445651 123.552307,47.0934784 121.522064,47.0934784 L125.984482,47.0934784 C128.014725,47.0934784 129.66037,48.7445651 129.66037,50.7815218 L129.66037,50.7815218 Z" id="Path" fill="#FF435F"></path>
            <path d="M128.466492,48.0608696 L96.3769531,74.0760871 C95.8591002,74.4967391 95.1180726,74.4967391 94.6002197,74.0760871 L62.5095978,48.0608696 C63.1628725,47.4586958 64.0339049,47.0934784 64.9926911,47.0934784 L125.984482,47.0934784 C126.943268,47.0934784 127.8143,47.4586958 128.466492,48.0608696 Z" id="Path" fill="#E32945"></path>
            <path d="M128.466492,48.0608696 L96.3758698,74.0760871 C95.8591002,74.4956522 95.1180726,74.4956522 94.6002197,74.0760871 L92.1171265,72.0652174 C92.1799623,72.0271738 92.2384644,71.9880434 92.29805,71.9402173 L122.946701,47.0934784 L125.984482,47.0934784 C126.943268,47.0934784 127.8143,47.4586958 128.466492,48.0608696 L128.466492,48.0608696 Z" id="Path" fill="#CB223B"></path>
            <g id="Group" transform="translate(0.000000, 47.860870)" fill="#FFD86E">
                <path d="M49.8211213,4.49782595 L30.3528899,4.49782595 C29.1817627,4.49782595 28.2316437,3.54456515 28.2316437,2.36956522 C28.2316437,1.19456529 29.1817627,0.241304487 30.3528899,0.241304487 L49.8211213,0.241304487 C50.9922485,0.241304487 51.9412842,1.19456529 51.9412842,2.36956522 C51.9412842,3.54456515 50.9922485,4.49782595 49.8211213,4.49782595 Z" id="Path"></path>
                <path d="M23.9902344,4.49782595 L19.8430786,4.49782595 C18.6719514,4.49782595 17.7218324,3.54456515 17.7218324,2.36956522 C17.7218324,1.19456529 18.6719514,0.241304487 19.8430786,0.241304487 L23.9902344,0.241304487 C25.1613616,0.241304487 26.1114809,1.19456529 26.1114809,2.36956522 C26.1114809,3.54456515 25.1613616,4.49782595 23.9902344,4.49782595 Z" id="Path"></path>
                <path d="M49.913208,45.6630433 L43.2450408,45.6630433 C42.0728303,45.6630433 41.1237946,44.7108697 41.1237946,43.5358695 C41.1237946,42.3608696 42.0728303,41.4076088 43.2450408,41.4076088 L49.913208,41.4076088 C51.0843353,41.4076088 52.0333709,42.3608696 52.0333709,43.5358695 C52.0333709,44.7108697 51.0843353,45.6630433 49.913208,45.6630433 Z" id="Path"></path>
                <path d="M10.0147095,31.9347826 L2.12124648,31.9347826 C0.950118949,31.9347826 -8.8817842e-16,30.9815218 -8.8817842e-16,29.8065219 C-8.8817842e-16,28.6315217 0.950118949,27.6793478 2.12124648,27.6793478 L10.0147095,27.6793478 C11.1858367,27.6793478 12.1359557,28.6315217 12.1359557,29.8065219 C12.1348724,30.9826087 11.1858367,31.9347826 10.0147095,31.9347826 Z" id="Path"></path>
                <path d="M7.73204034,45.6630433 L2.12124648,45.6630433 C0.950118949,45.6630433 2.66453526e-15,44.7108697 2.66453526e-15,43.5358695 C2.66453526e-15,42.3608696 0.950118949,41.4076088 2.12124648,41.4076088 L7.73204034,41.4076088 C8.90316759,41.4076088 9.85220351,42.3608696 9.85220351,43.5358695 C9.85220351,44.7108697 8.90316759,45.6630433 7.73204034,45.6630433 Z" id="Path"></path>
                <path d="M29.4341888,18.5423914 L2.12341309,18.5423914 C0.952285836,18.5423914 0.00216674805,17.5891306 0.00216674805,16.4141304 C0.00216674805,15.2391304 0.952285836,14.2869565 2.12341309,14.2869565 L29.4341888,14.2869565 C30.605316,14.2869565 31.5554352,15.2391304 31.5554352,16.4141304 C31.5543519,17.5891306 30.605316,18.5423914 29.4341888,18.5423914 Z" id="Path"></path>
                <path d="M49.8211213,31.9347826 L22.509262,31.9347826 C21.3381348,31.9347826 20.3890991,30.9815218 20.3890991,29.8065219 C20.3890991,28.6315217 21.3381348,27.6793478 22.509262,27.6793478 L49.8211213,27.6793478 C50.9922485,27.6793478 51.9412842,28.6315217 51.9412842,29.8065219 C51.9412842,30.9826087 50.9922485,31.9347826 49.8211213,31.9347826 Z" id="Path"></path>
                <path d="M35.1901549,45.6630433 L19.8430786,45.6630433 C18.6719514,45.6630433 17.7218324,44.7108697 17.7218324,43.5358695 C17.7218324,42.3608696 18.6719514,41.4076088 19.8430786,41.4076088 L35.1901549,41.4076088 C36.3612824,41.4076088 37.3103181,42.3608696 37.3103181,43.5358695 C37.3103181,44.7108697 36.3612824,45.6630433 35.1901549,45.6630433 Z" id="Path"></path>
                <path d="M8.26072686,4.49782595 L2.12341309,4.49782595 C0.952285836,4.49782595 0.00216674805,3.54456515 0.00216674805,2.36956522 C0.00216674805,1.19456529 0.952285836,0.241304487 2.12341309,0.241304487 L8.26072686,0.241304487 C9.43185411,0.241304487 10.3819733,1.19456529 10.3819733,2.36956522 C10.3819733,3.54456515 9.43185411,4.49782595 8.26072686,4.49782595 Z" id="Path"></path>
                <path d="M49.8211213,18.5423914 L36.6689606,18.5423914 C35.4978334,18.5423914 34.5477142,17.5891306 34.5477142,16.4141304 C34.5477142,15.2391304 35.4978334,14.2869565 36.6689606,14.2869565 L49.8211213,14.2869565 C50.9922485,14.2869565 51.9412842,15.2391304 51.9412842,16.4141304 C51.9412842,17.5891306 50.9922485,18.5423914 49.8211213,18.5423914 Z" id="Path"></path>
            </g>
        </g>
    </g>
</svg>