<?xml version="1.0" encoding="utf-8"?>
<!-- Generator: Adobe Illustrator 22.0.1, SVG Export Plug-In . SVG Version: 6.00 Build 0)  -->
<svg version="1.1" id="Layer_1" xmlns="http://www.w3.org/2000/svg" xmlns:xlink="http://www.w3.org/1999/xlink" x="0px" y="0px"
	 viewBox="0 0 1306.4 1306.4" style="enable-background:new 0 0 1306.4 1306.4;" xml:space="preserve">
<style type="text/css">
	.st0{fill:url(#SVGID_1_);}
	.st1{fill:#7D7D7D;}
</style>
<linearGradient id="SVGID_1_" gradientUnits="userSpaceOnUse" x1="85.9233" y1="653.1809" x2="1220.4385" y2="653.1809">
	<stop  offset="0" style="stop-color:#5CBBAA"/>
	<stop  offset="1" style="stop-color:#4C2A79"/>
</linearGradient>
<path class="st0" d="M1175.8,432.4c-28.6-67.6-69.5-128.2-121.5-180.3c-50.2-50.2-108.3-90-172.9-118.4l-43.6,90.1
	c54.5,23.5,103.6,56.8,145.8,99c42.9,42.9,76.6,92.9,100.2,148.5c24.4,57.6,36.7,118.8,36.7,181.9c0,63.1-12.3,124.3-36.7,181.9
	c-23.5,55.6-57.2,105.6-100.2,148.5c-42.9,42.9-92.9,76.6-148.5,100.2c-57.6,24.4-118.8,36.7-181.9,36.7
	c-63.1,0-124.3-12.3-181.9-36.7c-55.6-23.5-105.6-57.2-148.5-100.2c-42.9-42.9-76.6-92.9-100.2-148.5
	c-24.4-57.6-36.7-118.8-36.7-181.9c0-63.1,12.3-124.3,36.7-181.9c23.5-55.6,57.2-105.6,100.2-148.5s92.9-76.6,148.5-100.2
	c57.6-24.4,118.8-36.7,181.9-36.7h0v-100h0c-76.6,0-150.9,15-220.8,44.6c-67.6,28.6-128.2,69.5-180.3,121.5
	c-52.1,52.1-93,112.7-121.5,180.3c-29.6,70-44.6,144.3-44.6,220.8c0,76.6,15,150.9,44.6,220.8c28.6,67.6,69.5,128.2,121.5,180.3
	c52.1,52.1,112.7,93,180.3,121.5c70,29.6,144.3,44.6,220.8,44.6c76.6,0,150.9-15,220.8-44.6c67.6-28.6,128.2-69.5,180.3-121.5
	c52.1-52.1,93-112.7,121.5-180.3c29.6-70,44.6-144.3,44.6-220.8C1220.4,576.6,1205.4,502.3,1175.8,432.4z"/>
<g>
	<path class="st1" d="M430.8,715.3c12.1,0,21.9-4.5,29.5-13.4c7.6-8.9,11.4-21.8,11.4-38.4v-11.3c-5.1,6.5-11.3,11.4-18.4,14.8
		c-7.1,3.4-14.7,5-22.9,5c-21.3,0-38.1-7-50.3-20.9c-12.2-13.9-18.4-32.7-18.4-56.5c0-22.9,7.2-41.9,21.7-57.1
		c14.5-15.2,32.9-22.8,55.3-22.8c23.4,0,42.4,8.1,57,24.2c14.6,16.1,21.9,38.8,21.9,68v54.2c0,27.8-8.2,49.7-24.5,65.7
		c-16.3,16-37.2,23.9-62.5,23.9c-8,0-16.2-0.8-24.7-2.5c-8.5-1.6-16.3-4-23.6-7.2l5.4-33.4c6.8,2.6,13.6,4.5,20.2,5.8
		C414.8,714.7,422.4,715.3,430.8,715.3z M438.2,638.3c7.6,0,14.2-1.4,19.9-4.3c5.7-2.8,10.2-6.6,13.7-11.3v-21.1
		c0-16.8-2.9-29.6-8.8-38.3c-5.9-8.7-13.9-13.1-23.9-13.1c-9.2,0-16.8,4.3-22.6,12.9c-5.8,8.6-8.7,19.1-8.7,31.5
		c0,13,2.7,23.6,8,31.6C420.9,634.3,428.4,638.3,438.2,638.3z"/>
	<path class="st1" d="M706.2,747.5H549.6v-30.1l74.2-79.6c10.7-12.3,18.3-22.7,22.8-31.1c4.5-8.5,6.8-16.3,6.8-23.6
		c0-9.7-2.6-17.6-7.8-23.7s-12.6-9.2-22.1-9.2c-10.6,0-18.7,3.6-24.2,10.8c-5.5,7.2-8.3,16.8-8.3,28.8h-44.7l-0.3-0.9
		c-0.5-20.7,6.3-38.2,20.4-52.5c14.1-14.3,33.2-21.5,57.1-21.5c23.6,0,42.2,6.1,55.7,18.4c13.5,12.3,20.2,28.7,20.2,49.2
		c0,13.9-3.8,26.7-11.4,38.4c-7.6,11.7-20.2,27.1-37.7,46.1l-40.8,44.4l0.3,0.8h96.4V747.5z"/>
	<path class="st1" d="M734.1,562.2c0-13.5,4.4-24.8,13.2-33.9c8.8-9,21-13.5,36.6-13.5c15.9,0,28.1,4.5,36.9,13.5
		c8.7,9,13.1,20.3,13.1,34v12.1c0,13.5-4.4,24.8-13.1,33.7c-8.7,8.9-20.9,13.4-36.6,13.4c-15.8,0-28-4.5-36.9-13.4
		c-8.8-8.9-13.2-20.2-13.2-33.7V562.2z M764.7,574.3c0,6.1,1.7,11.2,5,15.4c3.4,4.2,8.2,6.2,14.5,6.2c6.1,0,10.8-2.1,14.1-6.2
		c3.3-4.1,5-9.3,5-15.4v-12.1c0-6.1-1.7-11.3-5-15.5c-3.4-4.3-8.1-6.4-14.3-6.4c-6.2,0-11,2.1-14.3,6.4s-5,9.4-5,15.5V574.3z
		 M791.8,730.3l-22.4-11.8l112-179.3l22.4,11.8L791.8,730.3z M843.7,691.2c0-13.4,4.4-24.7,13.2-33.7c8.8-9,21.1-13.5,36.7-13.5
		c15.8,0,28,4.5,36.8,13.5c8.8,9,13.2,20.2,13.2,33.8v12.1c0,13.7-4.4,24.9-13.1,33.9c-8.7,8.9-20.9,13.4-36.6,13.4
		c-15.8,0-28.1-4.5-36.9-13.5c-8.9-9-13.3-20.2-13.3-33.8V691.2z M874.3,703.4c0,6,1.8,11.1,5.4,15.4s8.4,6.4,14.3,6.4
		c6.8,0,11.7-2,14.7-5.9c2.9-3.9,4.4-9.2,4.4-15.8v-12.1c0-6-1.7-11.1-5-15.4c-3.4-4.3-8.1-6.4-14.3-6.4c-6.3,0-11.1,2.1-14.4,6.4
		s-5,9.4-5,15.4V703.4z"/>
</g>
</svg>
