<?xml version="1.0" encoding="UTF-8"?>
<svg width="354px" height="324px" viewBox="0 0 354 324" version="1.1" xmlns="http://www.w3.org/2000/svg" xmlns:xlink="http://www.w3.org/1999/xlink">
    <!-- Generator: Sketch 53.2 (72643) - https://sketchapp.com -->
    <title>camera</title>
    <desc>Created with Sketch.</desc>
    <defs>
        <circle id="path-1" cx="177" cy="162" r="142"></circle>
        <filter x="-9.5%" y="-5.3%" width="119.0%" height="119.0%" filterUnits="objectBoundingBox" id="filter-2">
            <feOffset dx="0" dy="12" in="SourceAlpha" result="shadowOffsetOuter1"></feOffset>
            <feGaussianBlur stdDeviation="7" in="shadowOffsetOuter1" result="shadowBlurOuter1"></feGaussianBlur>
            <feColorMatrix values="0 0 0 0 0   0 0 0 0 0   0 0 0 0 0  0 0 0 0.134451486 0" type="matrix" in="shadowBlurOuter1"></feColorMatrix>
        </filter>
    </defs>
    <g id="camera" stroke="none" stroke-width="1" fill="none" fill-rule="evenodd">
        <g id="Oval">
            <use fill="black" fill-opacity="1" filter="url(#filter-2)" xlink:href="#path-1"></use>
            <use fill="#FFFFFF" fill-rule="evenodd" xlink:href="#path-1"></use>
        </g>
        <g id="camera-(2)" transform="translate(106.000000, 109.000000)" fill-rule="nonzero">
            <path d="M118.770294,9.4423549 L102.42868,9.4423549 L102.42868,3.04654849 C102.42868,1.36435229 103.795898,0 105.481628,0 L115.718429,0 C117.404159,0 118.770294,1.36435229 118.770294,3.04654849 L118.770294,9.4423549 Z" id="Path" fill="#618BAA"></path>
            <path d="M42.0013274,6.54932264 L42.0013274,17.2100808 L13.4490053,17.2100808 L13.4490053,6.54932264 C13.4490053,4.86820748 14.8173064,3.50277415 16.5019531,3.50277415 L38.9494629,3.50277415 C40.6341096,3.50277415 42.0013274,4.86820748 42.0013274,6.54932264 Z" id="Path" fill="#E3F4FF"></path>
            <polygon id="Path" fill="#BDDFF4" points="13.4490053 10.3050751 42.0013274 10.3050751 42.0013274 17.2100808 13.4490053 17.2100808"></polygon>
            <path d="M124.87619,17.2100808 L96.3238679,17.2100808 L96.3238679,10.8131934 C96.3238679,9.1309972 97.6910857,7.76772594 99.3768157,7.76772594 L121.823242,7.76772594 C123.508972,7.76772594 124.87619,9.1309972 124.87619,10.8131934 L124.87619,17.2100808 Z" id="Path" fill="#38627C"></path>
            <path d="M61.5378111,17.2100808 L51.3010101,17.2100808 L51.3010101,9.59479038 C51.3010101,7.9125939 52.6671449,6.54932264 54.3528746,6.54932264 L58.4848633,6.54932264 C60.1705933,6.54932264 61.5378111,7.9125939 61.5378111,9.59479038 L61.5378111,17.2100808 Z" id="Path" fill="#FC3E81"></path>
            <path d="M142,20.0523009 L142,96.0030393 C142,99.3652701 139.267731,102.095055 135.895187,102.095055 L6.10481269,102.095055 C2.73226915,102.095055 0,99.3652701 0,96.0030393 L0,20.0523009 C0,16.688989 2.73226915,13.9602847 6.10481269,13.9602847 L135.895187,13.9602847 C139.267731,13.9602847 142,16.688989 142,20.0523009 Z" id="Path" fill="#9CC6DB"></path>
            <path d="M113.212585,67.5192152 C113.212585,81.8168041 106.036316,94.4765216 95.0866546,102.095055 L46.9133454,102.095055 C35.9636841,94.4765216 28.7874146,81.8168041 28.7874146,67.5192152 C28.7874146,44.2927952 47.7247925,25.3951125 71,25.3951125 C94.2752075,25.3951125 113.212585,44.2927952 113.212585,67.5192152 Z" id="Path" fill="#84A1C0"></path>
            <path d="M128.479492,32.905536 L114.251541,32.905536 C112.673065,32.905536 111.394684,31.6287533 111.394684,30.0546671 L111.394684,25.8491761 C111.394684,24.2740086 112.673065,22.9972258 114.251541,22.9972258 L128.479492,22.9972258 C130.057968,22.9972258 131.337433,24.2740086 131.337433,25.8491761 L131.337433,30.0546671 C131.336349,31.6287533 130.057968,32.905536 128.479492,32.905536 Z" id="Path" fill="#FC3E81"></path>
            <polygon id="Path" fill="#618BAA" points="0 32.9066173 142 32.9066173 142 93.0570333 0 93.0570333"></polygon>
            <path d="M113.212585,67.5192152 C113.212585,77.1107622 109.983048,85.9660778 104.549927,93.0570333 L37.4500732,93.0570333 C32.0169524,85.9660778 28.7874146,77.1107622 28.7874146,67.5192152 C28.7874146,53.1967609 35.9886018,40.5219075 46.9653474,32.9066173 L95.0346526,32.9066173 C106.011398,40.5219075 113.212585,53.1967609 113.212585,67.5192152 Z" id="Path" fill="#4E7693"></path>
            <path d="M116.559128,73.0890586 L107.628876,73.0890586 L107.628876,60.5947494 L116.559128,60.5947494 C118.541702,60.5947494 120.149429,62.1991065 120.149429,64.1775254 L120.149429,69.5062826 C120.149429,71.4847012 118.541702,73.0890586 116.559128,73.0890586 L116.559128,73.0890586 Z" id="Path" fill="#38627C"></path>
            <path d="M109.548615,67.5192152 C109.548615,88.7639727 92.2904663,105.987027 71,105.987027 C49.7095337,105.987027 32.4513854,88.7639727 32.4513854,67.5192152 C32.4513854,46.2733762 49.7095337,29.0503224 71,29.0503224 C92.2904663,29.0503224 109.548615,46.2733762 109.548615,67.5192152 Z" id="Path" fill="#E3F4FF"></path>
            <path d="M101.252136,67.5192152 C101.252136,84.1919876 87.7077943,97.7079388 71,97.7079388 C54.2922057,97.7079388 40.7478638,84.1919876 40.7478638,67.5192152 C40.7478638,50.8453615 54.2922057,37.32941 71,37.32941 C87.7077943,37.32941 101.252136,50.8453615 101.252136,67.5192152 Z" id="Path" fill="#BDDFF4"></path>
            <path d="M97.6889191,67.5192152 C97.6889191,82.2276233 85.7393035,94.1511097 71,94.1511097 C56.2606965,94.1511097 44.3110809,82.2276233 44.3110809,67.5192152 C44.3110809,52.8097258 56.2606965,40.8862395 71,40.8862395 C85.7393035,40.8862395 97.6889191,52.8097258 97.6889191,67.5192152 L97.6889191,67.5192152 Z" id="Path" fill="#38627C"></path>
            <g id="Group" transform="translate(15.531250, 26.845953)" fill="#3FEFEF">
                <path d="M73.4625091,40.6732622 C73.4625091,50.5891399 65.4065398,58.628223 55.46875,58.628223 C45.5309602,58.628223 37.4749909,50.5891399 37.4749909,40.6732622 C37.4749909,30.756303 45.5309602,22.7172201 55.46875,22.7172201 C65.4065398,22.7172201 73.4625091,30.756303 73.4625091,40.6732622 Z" id="Path"></path>
                <path d="M12.194458,6.05958299 C12.194458,9.36667755 9.50769043,12.0467323 6.1947328,12.0467323 C2.8806916,12.0467323 0.19392402,9.36667755 0.19392402,6.05958299 C0.19392402,2.75248844 2.8806916,0.0724339791 6.1947328,0.0724339791 C9.50769043,0.0724339791 12.194458,2.75248844 12.194458,6.05958299 Z" id="Path"></path>
            </g>
        </g>
    </g>
</svg>