<?xml version="1.0" encoding="UTF-8"?>
<svg width="1110px" height="1110px" viewBox="0 0 1110 1110" version="1.1" xmlns="http://www.w3.org/2000/svg" xmlns:xlink="http://www.w3.org/1999/xlink">
    <!-- Generator: Sketch 53.2 (72643) - https://sketchapp.com -->
    <title>camera</title>
    <desc>Created with Sketch.</desc>
    <defs>
        <circle id="path-1" cx="511" cy="511" r="511"></circle>
        <filter x="-7.5%" y="-5.4%" width="115.1%" height="115.1%" filterUnits="objectBoundingBox" id="filter-2">
            <feOffset dx="0" dy="22" in="SourceAlpha" result="shadowOffsetOuter1"></feOffset>
            <feGaussianBlur stdDeviation="22" in="shadowOffsetOuter1" result="shadowBlurOuter1"></feGaussianBlur>
            <feColorMatrix values="0 0 0 0 0   0 0 0 0 0   0 0 0 0 0  0 0 0 0.139750874 0" type="matrix" in="shadowBlurOuter1"></feColorMatrix>
        </filter>
    </defs>
    <g id="camera" stroke="none" stroke-width="1" fill="none" fill-rule="evenodd">
        <g id="Group-2" transform="translate(44.000000, 22.000000)">
            <g id="path-1-copy">
                <use fill="black" fill-opacity="1" filter="url(#filter-2)" xlink:href="#path-1"></use>
                <use fill="#FFFFFF" fill-rule="evenodd" xlink:href="#path-1"></use>
            </g>
        </g>
        <g transform="translate(292.000000, 337.000000)" fill-rule="nonzero" id="camera-(2)">
            <g>
                <path d="M439.115524,34.9188974 L378.697585,34.9188974 L378.697585,11.2664812 C378.697585,5.04552922 383.75244,0 389.984892,0 L427.83222,0 C434.064672,0 439.115524,5.04552922 439.115524,11.2664812 L439.115524,34.9188974 Z" id="Path" fill="#618BAA"></path>
                <path d="M155.286598,24.2201366 L155.286598,63.6448271 L49.7234351,63.6448271 L49.7234351,24.2201366 C49.7234351,18.0031824 54.7822948,12.9536553 61.0107421,12.9536553 L144.003296,12.9536553 C150.231743,12.9536553 155.286598,18.0031824 155.286598,24.2201366 Z" id="Path" fill="#E3F4FF"></path>
                <polygon id="Path" fill="#BDDFF4" points="49.7234351 38.1093343 155.286598 38.1093343 155.286598 63.6448271 49.7234351 63.6448271"></polygon>
                <path d="M461.690139,63.6448271 L356.126976,63.6448271 L356.126976,39.9884133 C356.126976,33.7674613 361.181831,28.7259299 367.414283,28.7259299 L450.402831,28.7259299 C456.635284,28.7259299 461.690139,33.7674613 461.690139,39.9884133 L461.690139,63.6448271 Z" id="Path" fill="#38627C"></path>
                <path d="M227.516555,63.6448271 L189.669227,63.6448271 L189.669227,35.482621 C189.669227,29.261668 194.720078,24.2201366 200.952529,24.2201366 L216.229248,24.2201366 C222.461701,24.2201366 227.516555,29.261668 227.516555,35.482621 L227.516555,63.6448271 Z" id="Path" fill="#FC3E81"></path>
                <path d="M525,74.1556788 L525,355.030108 C525,367.464018 514.898301,377.559071 502.429389,377.559071 L22.5706103,377.559071 C10.1016993,377.559071 0,367.464018 0,355.030108 L0,74.1556788 C0,61.7177706 10.1016993,51.6267132 22.5706103,51.6267132 L502.429389,51.6267132 C514.898301,51.6267132 525,61.7177706 525,74.1556788 Z" id="Path" fill="#9CC6DB"></path>
                <path d="M418.567656,249.693701 C418.567656,302.567804 392.035675,349.384872 351.552772,377.559071 L173.447228,377.559071 C132.964325,349.384872 106.432343,302.567804 106.432343,249.693701 C106.432343,163.799771 176.447296,93.9140009 262.5,93.9140009 C348.552704,93.9140009 418.567656,163.799771 418.567656,249.693701 Z" id="Path" fill="#84A1C0"></path>
                <path d="M475.012206,121.688397 L422.408866,121.688397 C416.572952,121.688397 411.846543,116.96671 411.846543,111.145561 L411.846543,95.5931795 C411.846543,89.7680318 416.572952,85.0463445 422.408866,85.0463445 L475.012206,85.0463445 C480.848121,85.0463445 485.578538,89.7680318 485.578538,95.5931795 L485.578538,111.145561 C485.57453,116.96671 480.848121,121.688397 475.012206,121.688397 Z" id="Path" fill="#FC3E81"></path>
                <polygon id="Path" fill="#618BAA" points="0 121.692396 525 121.692396 525 344.135444 0 344.135444"></polygon>
                <path d="M418.567656,249.693701 C418.567656,285.164328 406.627466,317.912288 386.540223,344.135444 L138.459778,344.135444 C118.372535,317.912288 106.432343,285.164328 106.432343,249.693701 C106.432343,196.727644 133.05645,149.854601 173.639489,121.692396 L351.360511,121.692396 C391.943549,149.854601 418.567656,196.727644 418.567656,249.693701 Z" id="Path" fill="#4E7693"></path>
                <path d="M430.940438,270.291613 L397.923661,270.291613 L397.923661,224.086243 L430.940438,224.086243 C438.270377,224.086243 444.214438,230.019337 444.214438,237.335754 L444.214438,257.042102 C444.214438,264.358518 438.270377,270.291613 430.940438,270.291613 L430.940438,270.291613 Z" id="Path" fill="#38627C"></path>
                <path d="M405.021288,249.693701 C405.021288,328.25922 341.214752,391.952024 262.5,391.952024 C183.785248,391.952024 119.978714,328.25922 119.978714,249.693701 C119.978714,171.124184 183.785248,107.431381 262.5,107.431381 C341.214752,107.431381 405.021288,171.124184 405.021288,249.693701 Z" id="Path" fill="#E3F4FF"></path>
                <path d="M374.347686,249.693701 C374.347686,311.351501 324.271775,361.335019 262.5,361.335019 C200.728225,361.335019 150.652313,311.351501 150.652313,249.693701 C150.652313,188.031903 200.728225,138.048384 262.5,138.048384 C324.271775,138.048384 374.347686,188.031903 374.347686,249.693701 Z" id="Path" fill="#BDDFF4"></path>
                <path d="M361.173821,249.693701 C361.173821,304.08706 316.993904,348.181462 262.5,348.181462 C208.006096,348.181462 163.826179,304.08706 163.826179,249.693701 C163.826179,195.296344 208.006096,151.201942 262.5,151.201942 C316.993904,151.201942 361.173821,195.296344 361.173821,249.693701 L361.173821,249.693701 Z" id="Path" fill="#38627C"></path>
                <g id="Group" transform="translate(57.421875, 99.279373)" fill="#3FEFEF">
                    <path d="M271.604347,150.414328 C271.604347,187.084366 241.819953,216.813806 205.078125,216.813806 C168.336297,216.813806 138.551903,187.084366 138.551903,150.414328 C138.551903,113.74029 168.336297,84.0108517 205.078125,84.0108517 C241.819953,84.0108517 271.604347,113.74029 271.604347,150.414328 Z" id="Path"></path>
                    <path d="M45.085144,22.4090239 C45.085144,34.639034 35.1516724,44.5501798 22.9030614,44.5501798 C10.6504443,44.5501798 0.716972609,34.639034 0.716972609,22.4090239 C0.716972609,10.1790139 10.6504443,0.267869055 22.9030614,0.267869055 C35.1516724,0.267869055 45.085144,10.1790139 45.085144,22.4090239 Z" id="Path"></path>
                </g>
            </g>
        </g>
    </g>
</svg>