<?xml version="1.0" encoding="UTF-8"?>
<svg width="1110px" height="1110px" viewBox="0 0 1110 1110" version="1.1" xmlns="http://www.w3.org/2000/svg" xmlns:xlink="http://www.w3.org/1999/xlink">
    <!-- Generator: Sketch 53.2 (72643) - https://sketchapp.com -->
    <title>data</title>
    <desc>Created with Sketch.</desc>
    <defs>
        <circle id="path-1" cx="511" cy="511" r="511"></circle>
        <filter x="-7.5%" y="-5.4%" width="115.1%" height="115.1%" filterUnits="objectBoundingBox" id="filter-2">
            <feOffset dx="0" dy="22" in="SourceAlpha" result="shadowOffsetOuter1"></feOffset>
            <feGaussianBlur stdDeviation="22" in="shadowOffsetOuter1" result="shadowBlurOuter1"></feGaussianBlur>
            <feColorMatrix values="0 0 0 0 0   0 0 0 0 0   0 0 0 0 0  0 0 0 0.139750874 0" type="matrix" in="shadowBlurOuter1"></feColorMatrix>
        </filter>
    </defs>
    <g id="data" stroke="none" stroke-width="1" fill="none" fill-rule="evenodd">
        <g id="Group-2" transform="translate(44.000000, 22.000000)">
            <g id="path-1-copy">
                <use fill="black" fill-opacity="1" filter="url(#filter-2)" xlink:href="#path-1"></use>
                <use fill="#FFFFFF" fill-rule="evenodd" xlink:href="#path-1"></use>
            </g>
        </g>
        <g transform="translate(307.000000, 285.000000)" fill-rule="nonzero" id="data-(2)">
            <g>
                <polygon id="Path" fill="#5A5A5A" points="178.780006 405.473313 317.64743 405.473313 317.64743 462.949553 178.780006 462.949553"></polygon>
                <path d="M470.942689,413.523324 L25.4847486,413.523324 C11.4095533,413.523324 -2.84217094e-14,402.113768 -2.84217094e-14,388.038574 L-2.84217094e-14,25.4847486 C-2.84217094e-14,11.4095533 11.4095533,-2.84217094e-14 25.4847486,-2.84217094e-14 L470.942689,-2.84217094e-14 C485.017883,-2.84217094e-14 496.427435,11.4095533 496.427435,25.4847486 L496.427435,388.038574 C496.427435,402.113768 485.017883,413.523324 470.942689,413.523324 Z" id="Path" fill="#FFD86E"></path>
                <path d="M496.431229,25.4885402 L496.431229,388.038574 C496.431229,402.113768 485.021673,413.523323 470.94648,413.523323 L439.815726,413.523323 C453.890923,413.523323 465.300476,402.113768 465.300476,388.038574 L465.300476,25.4885402 C465.300476,11.4133448 453.890923,0.00379180907 439.815726,0.00379180907 L470.94648,0.00379180907 C485.021673,0.00379180907 496.431229,11.4133448 496.431229,25.4885402 L496.431229,25.4885402 Z" id="Path" fill="#FFB509"></path>
                <path d="M496.427435,352.126351 L0,352.126351 L0,388.038574 C0,402.113768 11.4095533,413.523323 25.4847486,413.523323 L470.942689,413.523323 C485.017883,413.523323 496.427435,402.113768 496.427435,388.038574 L496.427435,352.126351 Z" id="Path" fill="#838383"></path>
                <path d="M496.431229,352.122557 L496.431229,388.038574 C496.431229,402.113768 485.021673,413.523323 470.94648,413.523323 L439.815726,413.523323 C453.890923,413.523323 465.300476,402.113768 465.300476,388.038574 L465.300476,352.122557 L496.431229,352.122557 Z" id="Path" fill="#5A5A5A"></path>
                <path d="M496.99621,86.9385986 L0.553603642,86.9385986 L0.553603642,25.4847486 C0.553603642,11.4095533 11.9631579,0 26.0345607,0 L471.51146,0 C485.586654,0 496.99621,11.4095533 496.99621,25.4847486 L496.99621,86.9385986 Z" id="Path" fill="#ACACAC"></path>
                <path d="M497,25.480957 L497,86.9423902 L465.300476,86.9423902 L465.300476,25.480957 C465.300476,11.4133448 453.890924,0.00379180907 439.811936,0.00379180907 L471.51525,0.00379180907 C485.590448,0.00379180907 497,11.4133448 497,25.480957 Z" id="Path" fill="#9C9C9C"></path>
                <path d="M362.648622,496.442604 L133.778816,496.442604 C131.022171,496.442604 128.785004,494.205435 128.785004,491.44879 L128.785004,475.26156 C128.785004,464.284271 137.68438,455.384895 148.661667,455.384895 L347.76577,455.384895 C358.743056,455.384895 367.642433,464.284271 367.642433,475.26156 L367.642433,491.44879 C367.642433,494.205435 365.405268,496.442604 362.648622,496.442604 Z" id="Path" fill="#838383"></path>
                <path d="M367.642433,475.257766 L367.642433,491.452584 C367.642433,494.20923 365.405268,496.446398 362.644828,496.446398 L345.012916,496.446398 L345.012916,475.257766 C345.012916,464.288062 336.11354,455.384895 325.143837,455.384895 L347.773353,455.384895 C358.74685,455.384895 367.642433,464.284271 367.642433,475.257766 L367.642433,475.257766 Z" id="Path" fill="#5A5A5A"></path>
                <g id="Group" transform="translate(25.238283, 119.396484)" fill="#838383">
                    <path d="M31.5251002,61.6320652 C29.6633227,61.6320652 27.7977526,60.9229968 26.375824,59.5010682 L2.88556647,36.007019 C0.0417101426,33.1669543 0.0417101426,28.5561144 2.88556647,25.7122571 L26.375824,2.22199964 C29.2196803,-0.62185669 33.8305201,-0.62185669 36.6743776,2.22199964 C39.5182347,5.06585695 39.5182347,9.6729052 36.6743776,12.5167615 L18.3296046,30.8615344 L36.6743776,49.2063061 C39.5182347,52.0501636 39.5182347,56.6572118 36.6743776,59.5010682 C35.2524487,60.9229968 33.3868787,61.6320652 31.5251002,61.6320652 Z" id="Path"></path>
                    <path d="M87.6893773,61.6320652 C85.8275988,61.6320652 83.9620288,60.9229968 82.5400999,59.5010682 C79.6962428,56.6572118 79.6962428,52.046372 82.5400999,49.2063061 L100.884873,30.8615344 L82.5400999,12.5167615 C79.6962428,9.6729052 79.6962428,5.06206537 82.5400999,2.22199964 C85.3839574,-0.62185669 89.9947972,-0.62185669 92.8386536,2.22199964 L116.328911,25.7122571 C119.172767,28.5561144 119.172767,33.1669543 116.328911,36.007019 L92.8386536,59.5010682 C91.416725,60.9229968 89.5511547,61.6320652 87.6893773,61.6320652 Z" id="Path"></path>
                    <path d="M51.1780469,61.6358568 C50.290764,61.6358568 49.3921047,61.472809 48.5161974,61.1277541 C44.7736818,59.6603245 42.9308621,55.4324572 44.402085,51.6899415 L62.8606104,4.70563482 C64.3318333,0.966911558 68.5596996,-0.879699706 72.2984241,0.591522218 C76.0409398,2.06274414 77.8837584,6.2906115 76.4125366,10.0331273 L57.9540101,57.0136413 C56.8278431,59.8840407 54.0825733,61.6358568 51.1780469,61.6358568 Z" id="Path"></path>
                    <path d="M62.7506481,105.594299 L12.2740857,105.594299 C8.25476813,105.594299 4.99381232,102.333343 4.99381232,98.3140259 C4.99381232,94.2909166 8.25476813,91.0337526 12.2740857,91.0337526 L62.7506481,91.0337526 C66.7737574,91.0337526 70.0309218,94.2909166 70.0309218,98.3140259 C70.0309218,102.333343 66.7737574,105.594299 62.7506481,105.594299 Z" id="Path"></path>
                    <path d="M179.015099,105.594299 L90.2678073,105.594299 C86.2484889,105.594299 82.987534,102.333343 82.987534,98.3140259 C82.987534,94.2909166 86.2484889,91.0337526 90.2678073,91.0337526 L179.015099,91.0337526 C183.038208,91.0337526 186.295372,94.2909166 186.295372,98.3140259 C186.295372,102.333343 183.038208,105.594299 179.015099,105.594299 Z" id="Path"></path>
                    <path d="M33.7774353,137.195237 L12.2740857,137.195237 C8.25476813,137.195237 4.99381232,133.938072 4.99381232,129.914963 C4.99381232,125.895645 8.25476813,122.63469 12.2740857,122.63469 L33.7774353,122.63469 C37.8005446,122.63469 41.0577087,125.895645 41.0577087,129.914963 C41.0577087,133.938072 37.7967531,137.195237 33.7774353,137.195237 Z" id="Path"></path>
                    <path d="M164.697228,137.195237 L151.600319,137.195237 C147.581001,137.195237 144.320045,133.938072 144.320045,129.914963 C144.320045,125.895645 147.581001,122.63469 151.600319,122.63469 L164.697228,122.63469 C168.716545,122.63469 171.977501,125.895645 171.977501,129.914963 C171.977501,133.938072 168.716545,137.195237 164.697228,137.195237 Z" id="Path"></path>
                    <path d="M124.386505,137.195237 L60.0698388,137.195237 C56.0467299,137.195237 52.7895655,133.938072 52.7895655,129.914963 C52.7895655,125.895645 56.0467299,122.63469 60.0698388,122.63469 L124.386505,122.63469 C128.409614,122.63469 131.666779,125.895645 131.666779,129.914963 C131.666779,133.938072 128.405823,137.195237 124.386505,137.195237 Z" id="Path"></path>
                    <path d="M212.985916,137.195237 L188.456703,137.195237 C184.437385,137.195237 181.176429,133.938072 181.176429,129.914963 C181.176429,125.895645 184.437385,122.63469 188.456703,122.63469 L212.985916,122.63469 C217.005234,122.63469 220.266189,125.895645 220.266189,129.914963 C220.266189,133.938072 217.005234,137.195237 212.985916,137.195237 Z" id="Path"></path>
                    <path d="M166.028152,36.6554188 L140.156639,36.6554188 C136.13353,36.6554188 132.876366,33.3982544 132.876366,29.3751452 C132.876366,25.3558276 136.13353,22.0948717 140.156639,22.0948717 L166.028152,22.0948717 C170.051262,22.0948717 173.308425,25.3558276 173.308425,29.3751452 C173.308425,33.3982544 170.051262,36.6554188 166.028152,36.6554188 Z" id="Path"></path>
                    <path d="M352.854376,36.6554188 L195.001366,36.6554188 C190.982048,36.6554188 187.721092,33.3982544 187.721092,29.3751452 C187.721092,25.3558276 190.982048,22.0948717 195.001366,22.0948717 L352.854376,22.0948717 C356.873695,22.0948717 360.134653,25.3558276 360.134653,29.3751452 C360.134653,33.3982544 356.873695,36.6554188 352.854376,36.6554188 Z" id="Path"></path>
                    <path d="M328.874977,69.625198 L264.937493,69.625198 C260.914382,69.625198 257.657219,66.3680346 257.657219,62.3449246 C257.657219,58.3256079 260.914382,55.0646509 264.937493,55.0646509 L328.874977,55.0646509 C332.898086,55.0646509 336.15525,58.3256079 336.15525,62.3449246 C336.15525,66.3680346 332.898086,69.625198 328.874977,69.625198 Z" id="Path"></path>
                    <path d="M240.958092,69.625198 L218.976975,69.625198 C214.957657,69.625198 211.696702,66.3680346 211.696702,62.3449246 C211.696702,58.3256079 214.957657,55.0646509 218.976975,55.0646509 L240.958092,55.0646509 C244.981201,55.0646509 248.238366,58.3256079 248.238366,62.3449246 C248.238366,66.3680346 244.981201,69.625198 240.958092,69.625198 Z" id="Path"></path>
                    <path d="M194.00412,69.625198 L140.152847,69.625198 C136.13353,69.625198 132.872573,66.3680346 132.872573,62.3449246 C132.872573,58.3256079 136.13353,55.0646509 140.152847,55.0646509 L194.00412,55.0646509 C198.023437,55.0646509 201.284393,58.3256079 201.284393,62.3449246 C201.284393,66.3680346 198.023437,69.625198 194.00412,69.625198 Z" id="Path"></path>
                    <path d="M124.4813,168.534539 L74.0047374,168.534539 C69.9816285,168.534539 66.7244641,165.273583 66.7244641,161.254265 C66.7244641,157.231155 69.9816285,153.973992 74.0047374,153.973992 L124.4813,153.973992 C128.504409,153.973992 131.761574,157.231155 131.761574,161.254265 C131.761574,165.273583 128.504409,168.534539 124.4813,168.534539 Z" id="Path"></path>
                    <path d="M51.0567092,168.534539 L12.2740857,168.534539 C8.25476813,168.534539 4.99381232,165.273583 4.99381232,161.254265 C4.99381232,157.231155 8.25476813,153.973992 12.2740857,153.973992 L51.0567092,153.973992 C55.0760266,153.973992 58.3369825,157.231155 58.3369825,161.254265 C58.3369825,165.273583 55.0760266,168.534539 51.0567092,168.534539 Z" id="Path"></path>
                    <path d="M215.981445,168.534539 L150.045678,168.534539 C146.022568,168.534539 142.765404,165.273583 142.765404,161.254265 C142.765404,157.231155 146.022568,153.973992 150.045678,153.973992 L215.981445,153.973992 C220.004554,153.973992 223.261719,157.231155 223.261719,161.254265 C223.261719,165.273583 220.004554,168.534539 215.981445,168.534539 Z" id="Path"></path>
                </g>
                <polygon id="Path" fill="#64DCFC" points="287.972732 255.674103 450.228034 255.674103 450.228034 310.621208 287.972732 310.621208"></polygon>
                <polygon id="Path" fill="#64DCFC" points="287.972732 340.591667 450.228034 340.591667 450.228034 391.545997 287.972732 391.545997"></polygon>
                <polygon id="Path" fill="#00D1FC" points="431.041482 255.674103 450.228034 255.674103 450.228034 310.621208 431.041482 310.621208"></polygon>
                <polygon id="Path" fill="#00D1FC" points="431.041482 340.591667 450.228034 340.591667 450.228034 391.545997 431.041482 391.545997"></polygon>
                <path d="M463.662416,267.610718 L274.538353,267.610718 C270.537994,267.610718 267.295997,264.368721 267.295997,260.368362 L267.295997,223.951828 C267.295997,219.95147 270.537994,216.709473 274.538353,216.709473 L463.662416,216.709473 C467.662772,216.709473 470.90477,219.95147 470.90477,223.951828 L470.90477,260.368362 C470.90477,264.368721 467.662772,267.610718 463.662416,267.610718 Z" id="Path" fill="#0396FD"></path>
                <path d="M463.662416,349.267326 L274.538353,349.267326 C270.537994,349.267326 267.295997,346.02533 267.295997,342.024971 L267.295997,305.608436 C267.295997,301.608078 270.537994,298.366082 274.538353,298.366082 L463.662416,298.366082 C467.662772,298.366082 470.90477,301.608078 470.90477,305.608436 L470.90477,342.024971 C470.90477,346.02533 467.662772,349.267326 463.662416,349.267326 Z" id="Path" fill="#0396FD"></path>
                <path d="M463.662416,430.923934 L274.538353,430.923934 C270.537994,430.923934 267.295997,427.68194 267.295997,423.68158 L267.295997,387.265046 C267.295997,383.264686 270.537994,380.022692 274.538353,380.022692 L463.662416,380.022692 C467.662772,380.022692 470.90477,383.264686 470.90477,387.265046 L470.90477,423.68158 C470.90477,427.68194 467.662772,430.923934 463.662416,430.923934 Z" id="Path" fill="#0396FD"></path>
                <path d="M470.90477,223.951828 L470.90477,260.368362 C470.90477,264.364929 467.666567,267.610718 463.662416,267.610718 L446.857117,267.610718 C450.865058,267.610718 454.099471,264.364929 454.099471,260.368362 L454.099471,223.951828 C454.099471,219.955261 450.865058,216.709473 446.857117,216.709473 L463.662416,216.709473 C467.666567,216.709473 470.90477,219.955261 470.90477,223.951828 Z" id="Path" fill="#0077F0"></path>
                <path d="M470.90477,305.604645 L470.90477,342.021179 C470.90477,346.029121 467.666567,349.267326 463.662416,349.267326 L446.857117,349.267326 C450.865058,349.267326 454.099471,346.029121 454.099471,342.021179 L454.099471,305.604645 C454.099471,301.608078 450.865058,298.36229 446.857117,298.36229 L463.662416,298.36229 C467.666567,298.36229 470.90477,301.608078 470.90477,305.604645 Z" id="Path" fill="#0077F0"></path>
                <path d="M470.90477,387.268837 L470.90477,423.685371 C470.90477,427.68194 467.666567,430.927728 463.662416,430.927728 L446.857117,430.927728 C450.865058,430.927728 454.099471,427.68194 454.099471,423.685371 L454.099471,387.268837 C454.099471,383.264686 450.865058,380.026483 446.857117,380.026483 L463.662416,380.026483 C467.666567,380.026483 470.90477,383.264686 470.90477,387.268837 Z" id="Path" fill="#0077F0"></path>
                <path d="M330.3917,249.440369 L294.335388,249.440369 C290.31607,249.440369 287.055115,246.183204 287.055115,242.160095 C287.055115,238.140778 290.31607,234.879822 294.335388,234.879822 L330.395493,234.879822 C334.41481,234.879822 337.675766,238.140778 337.675766,242.160095 C337.675766,246.183204 334.41481,249.440369 330.3917,249.440369 Z" id="Path" fill="#E7E7E7"></path>
                <path d="M443.86538,249.440369 L392.960341,249.440369 C388.941025,249.440369 385.680068,246.183204 385.680068,242.160095 C385.680068,238.140778 388.941025,234.879822 392.960341,234.879822 L443.861586,234.879822 C447.884696,234.879822 451.141859,238.140778 451.141859,242.160095 C451.141859,246.183204 447.884696,249.440369 443.86538,249.440369 L443.86538,249.440369 Z" id="Path" fill="#E7E7E7"></path>
                <path d="M367.509719,249.440369 L355.842323,249.440369 C351.823007,249.440369 348.56205,246.183204 348.56205,242.160095 C348.56205,238.140778 351.823007,234.879822 355.842323,234.879822 L367.509719,234.879822 C371.532829,234.879822 374.789992,238.140778 374.789992,242.160095 C374.789992,246.183204 371.529039,249.440369 367.509719,249.440369 L367.509719,249.440369 Z" id="Path" fill="#E7E7E7"></path>
                <path d="M330.3917,331.096977 L294.335388,331.096977 C290.31607,331.096977 287.055115,327.839813 287.055115,323.816704 C287.055115,319.797386 290.31607,316.536431 294.335388,316.536431 L330.395493,316.536431 C334.41481,316.536431 337.675766,319.797386 337.675766,323.816704 C337.675766,327.839813 334.41481,331.096977 330.3917,331.096977 Z" id="Path" fill="#E7E7E7"></path>
                <path d="M443.86538,331.096977 L392.960341,331.096977 C388.941025,331.096977 385.680068,327.839813 385.680068,323.816704 C385.680068,319.797386 388.941025,316.536431 392.960341,316.536431 L443.861586,316.536431 C447.884696,316.536431 451.141859,319.797386 451.141859,323.816704 C451.141859,327.839813 447.884696,331.096977 443.86538,331.096977 L443.86538,331.096977 Z" id="Path" fill="#E7E7E7"></path>
                <path d="M367.509719,331.096977 L355.842323,331.096977 C351.823007,331.096977 348.56205,327.839813 348.56205,323.816704 C348.56205,319.797386 351.823007,316.536431 355.842323,316.536431 L367.509719,316.536431 C371.532829,316.536431 374.789992,319.797386 374.789992,323.816704 C374.789992,327.839813 371.529039,331.096977 367.509719,331.096977 L367.509719,331.096977 Z" id="Path" fill="#E7E7E7"></path>
                <path d="M330.3917,412.753586 L294.335388,412.753586 C290.31607,412.753586 287.055115,409.492629 287.055115,405.473313 C287.055115,401.453994 290.31607,398.19304 294.335388,398.19304 L330.395493,398.19304 C334.41481,398.19304 337.675766,401.453994 337.675766,405.473313 C337.675766,409.492629 334.41481,412.753586 330.3917,412.753586 Z" id="Path" fill="#E7E7E7"></path>
                <path d="M443.86538,412.753586 L392.960341,412.753586 C388.941025,412.753586 385.680068,409.492629 385.680068,405.473313 C385.680068,401.453994 388.941025,398.19304 392.960341,398.19304 L443.861586,398.19304 C447.884696,398.19304 451.141859,401.453994 451.141859,405.473313 C451.141859,409.492629 447.884696,412.753586 443.86538,412.753586 L443.86538,412.753586 Z" id="Path" fill="#E7E7E7"></path>
                <path d="M367.509719,412.753586 L355.842323,412.753586 C351.823007,412.753586 348.56205,409.492629 348.56205,405.473313 C348.56205,401.453994 351.823007,398.19304 355.842323,398.19304 L367.509719,398.19304 C371.532829,398.19304 374.789992,401.453994 374.789992,405.473313 C374.789992,409.492629 371.529039,412.753586 367.509719,412.753586 L367.509719,412.753586 Z" id="Path" fill="#E7E7E7"></path>
                <path d="M62.2652968,43.2569582 C62.2652968,51.2652588 55.7737194,57.7530443 47.7692113,57.7530443 C39.7609103,57.7530443 33.2693334,51.2652588 33.2693334,43.2569582 C33.2693334,35.2524487 39.7609103,28.7608717 47.7692113,28.7608717 C55.7737194,28.7608717 62.2652968,35.2524487 62.2652968,43.2569582 Z" id="Path" fill="#FF5770"></path>
                <path d="M118.247566,43.2569582 C118.247566,51.2652588 111.75978,57.7530443 103.75148,57.7530443 C95.7469713,57.7530443 89.2553942,51.2652588 89.2553942,43.2569582 C89.2553942,35.2524487 95.7469713,28.7608717 103.75148,28.7608717 C111.75978,28.7608717 118.247566,35.2524487 118.247566,43.2569582 Z" id="Path" fill="#FFD86E"></path>
                <path d="M174.233628,43.2569582 C174.233628,51.2652588 167.742051,57.7530443 159.737542,57.7530443 C151.729241,57.7530443 145.241455,51.2652588 145.241455,43.2569582 C145.241455,35.2524487 151.729241,28.7608717 159.737542,28.7608717 C167.742051,28.7608717 174.233628,35.2524487 174.233628,43.2569582 Z" id="Path" fill="#80E0DC"></path>
                <path d="M62.2577137,43.2607497 C62.2577137,51.2652588 55.7737194,57.7492527 47.7730029,57.7492527 C43.893982,57.7492527 40.3676,56.2287366 37.7702101,53.74131 C45.6116714,53.5706787 51.9288256,47.1587294 51.9288256,39.2641834 C51.9288256,35.1311111 50.1997608,31.4113464 47.4317396,28.7760389 C47.5417019,28.7646632 47.6630396,28.7646632 47.7730029,28.7646632 C55.7737194,28.7646632 62.2577137,35.2486571 62.2577137,43.2607497 Z" id="Path" fill="#FF435F"></path>
                <path d="M118.243774,43.2607497 C118.243774,51.2652588 111.75978,57.7492527 103.747688,57.7492527 C99.8724598,57.7492527 96.3574525,56.2287366 93.7486879,53.74131 C101.601524,53.5706787 107.914886,47.1587294 107.914886,39.2641834 C107.914886,35.1311111 106.185822,31.4113464 103.421593,28.7760389 C103.527763,28.7646632 103.637726,28.7646632 103.75148,28.7646632 C111.763573,28.7646632 118.243774,35.2486571 118.243774,43.2607497 Z" id="Path" fill="#FFB509"></path>
                <path d="M174.233628,43.2607497 C174.233628,51.2652588 167.738258,57.7492527 159.737542,57.7492527 C155.858521,57.7492527 152.343513,56.2287366 149.734748,53.74131 C157.587585,53.5706787 163.893364,47.1587294 163.893364,39.2641834 C163.893364,35.1311111 162.164299,31.4113464 159.396278,28.7760389 C159.50624,28.7646632 159.627578,28.7646632 159.737542,28.7646632 C167.738258,28.7646632 174.233628,35.2486571 174.233628,43.2607497 Z" id="Path" fill="#00A8B0"></path>
            </g>
        </g>
    </g>
</svg>