<?xml version="1.0" encoding="UTF-8"?>
<svg width="1110px" height="1110px" viewBox="0 0 1110 1110" version="1.1" xmlns="http://www.w3.org/2000/svg" xmlns:xlink="http://www.w3.org/1999/xlink">
    <!-- Generator: Sketch 53.2 (72643) - https://sketchapp.com -->
    <title>findafilm</title>
    <desc>Created with Sketch.</desc>
    <defs>
        <circle id="path-1" cx="511" cy="511" r="511"></circle>
        <filter x="-7.5%" y="-5.4%" width="115.1%" height="115.1%" filterUnits="objectBoundingBox" id="filter-2">
            <feOffset dx="0" dy="22" in="SourceAlpha" result="shadowOffsetOuter1"></feOffset>
            <feGaussianBlur stdDeviation="22" in="shadowOffsetOuter1" result="shadowBlurOuter1"></feGaussianBlur>
            <feColorMatrix values="0 0 0 0 0   0 0 0 0 0   0 0 0 0 0  0 0 0 0.139750874 0" type="matrix" in="shadowBlurOuter1"></feColorMatrix>
        </filter>
    </defs>
    <g id="findafilm" stroke="none" stroke-width="1" fill="none" fill-rule="evenodd">
        <g id="Group-2" transform="translate(44.000000, 22.000000)">
            <g id="path-1-copy">
                <use fill="black" fill-opacity="1" filter="url(#filter-2)" xlink:href="#path-1"></use>
                <use fill="#FFFFFF" fill-rule="evenodd" xlink:href="#path-1"></use>
            </g>
            <g id="access" transform="translate(191.000000, 227.000000)" fill-rule="nonzero">
                <g id="Group" transform="translate(0.007812, 0.309735)">
                    <path d="M56.3641523,117.176991 L583.61502,117.176991 C583.61502,147.704858 608.59132,172.684451 639.116754,172.684451 L639.116754,394.701283 C608.592621,394.701283 583.61502,419.676973 583.61502,450.204841 L56.3641523,450.204841 C56.3641523,419.679575 31.3904531,394.701283 0.867621094,394.701283 L0.867621094,172.684451 C31.3904531,172.684451 56.3641523,147.704858 56.3641523,117.176991 Z" id="Path" stroke="#000000" stroke-width="11" fill="#FE3646"></path>
                    <rect id="Rectangle" fill="#20E1FF" x="70.2421875" y="186.560991" width="499.497398" height="194.266354"></rect>
                    <path d="M270.609328,109.176991 L382.956504,0.820858407 C402.74659,19.9066629 435.13084,19.9066629 454.917023,0.820858407 L567.261598,109.176991 L270.609328,109.176991 L270.609328,109.176991 Z M369.372445,460.199637 L257.022668,572.558372 C237.237785,552.768009 204.857438,552.768009 185.068652,572.558372 L72.718875,460.199637 L369.372445,460.199637 Z" id="Shape" stroke="#000000" stroke-width="7" fill="#17A2B8"></path>
                </g>
                <g id="Group" transform="translate(56.000000, 52.000000)" fill="#000003">
                    <path d="M513.748699,120.988982 L14.25,120.988982 C6.58709766,120.988982 0.374566406,127.202009 0.374566406,134.865522 L0.374566406,329.130575 C0.374566406,336.794088 6.58839844,343.007115 14.25,343.007115 L513.75,343.007115 C521.412902,343.007115 527.625434,336.792788 527.625434,329.130575 L527.625434,134.866823 C527.625434,127.202009 521.411602,120.988982 513.748699,120.988982 Z M28.1254336,148.743363 L499.873266,148.743363 L499.873266,315.254035 L28.1254336,315.254035 L28.1254336,148.743363 Z" id="Shape"></path>
                    <path d="M167.549672,439.165929 L167.315531,439.400088 C161.896477,444.819575 161.896477,453.604451 167.315531,459.025239 C170.023758,461.734982 173.577492,463.090504 177.127324,463.090504 C180.678457,463.090504 184.230891,461.736283 186.939117,459.025239 L187.173258,458.79108 C192.591012,453.371593 192.591012,444.586717 187.173258,439.165929 C181.754203,433.746442 172.968727,433.746442 167.549672,439.165929 Z" id="Path"></path>
                    <path d="M345.748898,28.8980354 C349.266211,28.8980354 352.787426,27.568531 355.490449,24.9043186 L355.72459,24.6740619 C361.183969,19.2936018 361.247707,10.5087257 355.867676,5.0489115 C350.488945,-0.40960177 341.70477,-0.473345133 336.24409,4.90581416 L336.009949,5.13737168 C330.55057,10.516531 330.488133,19.302708 335.865563,24.7625221 C338.578992,27.5164956 342.161344,28.8980354 345.748898,28.8980354 Z" id="Path"></path>
                </g>
                <path d="M140.303574,303.96208 L140.303574,311.318584 L113.078223,311.318584 L113.078223,303.96208 C114.487409,303.454732 116.601158,302.750093 119.419531,301.848142 L119.419531,261.683319 L113.078223,259.146593 L113.078223,252.128319 L132.524902,251.705531 L156.199121,251.705531 L156.199121,267.77146 L148.335898,267.77146 L146.222129,261.683319 L132.524902,261.683319 L132.524902,276.65 L150.026914,276.65 L150.026914,285.951327 L132.524902,285.951327 L132.524902,301.848142 C136.921565,303.031953 139.51443,303.736592 140.303574,303.96208 Z M161.272168,266.333982 L180.465195,265.657522 L180.465195,302.440044 L186.38375,304.553982 L186.38375,311.318584 L161.272168,311.318584 L161.272168,304.553982 L168.03623,302.440044 L168.03623,274.789735 L161.272168,273.098584 L161.272168,266.333982 Z M166.429766,251.705531 C166.429766,249.39428 167.14844,247.548126 168.585811,246.167013 C170.023181,244.7859 171.728271,244.095354 173.701133,244.095354 C178.436,244.095354 180.803398,246.632054 180.803398,251.705531 C180.803398,254.073153 180.084724,255.947493 178.647354,257.328606 C177.209983,258.709719 175.561259,259.400265 173.701133,259.400265 C171.390067,259.400265 169.600426,258.737905 168.332158,257.413164 C167.06389,256.088423 166.429766,254.185897 166.429766,251.705531 Z M191.541348,266.333982 L209.043359,265.657522 L209.635215,271.491991 C210.255257,270.984643 211.072573,270.378654 212.087187,269.674004 C213.101802,268.969355 214.975992,268.011046 217.709814,266.799049 C220.443637,265.587051 222.93786,264.981062 225.192559,264.981062 C229.251016,264.981062 232.365272,266.319876 234.53542,268.997544 C236.705567,271.675213 237.790625,275.353428 237.790625,280.032301 L237.790625,302.440044 C238.523402,302.665532 239.566185,303.031944 240.919004,303.539292 C242.271823,304.04664 243.201872,304.384866 243.70918,304.553982 L243.70918,311.318584 L220.880469,311.318584 L220.880469,304.553982 L225.36166,302.440044 L225.36166,281.977124 C225.36166,280.004105 224.840269,278.383436 223.797471,277.115066 C222.754673,275.846697 221.359599,275.212522 219.612207,275.212522 C218.033918,275.212522 216.497927,275.621213 215.004189,276.438606 C213.510452,277.256 212.397211,278.059288 211.664434,278.848496 L210.565273,280.032301 L210.565273,302.440044 L214.961914,304.553982 L214.961914,311.318584 L191.541348,311.318584 L191.541348,304.553982 L198.051758,302.440044 L198.051758,274.789735 L191.541348,273.098584 L191.541348,266.333982 Z M296.976172,310.726681 L279.220508,311.318584 L278.459551,306.837035 C274.9084,310.388469 270.65272,312.164159 265.692383,312.164159 C259.886533,312.164159 255.546303,310.19117 252.671562,306.245133 C249.796822,302.299095 248.359473,296.74654 248.359473,289.587301 C248.359473,281.582482 250.374579,275.452123 254.404854,271.19604 C258.435128,266.939957 264.395898,264.811947 272.287344,264.811947 C274.14747,264.811947 275.979386,265.093802 277.783145,265.657522 L277.783145,254.918717 L271.019082,253.227566 L271.019082,246.462965 L290.212109,245.786504 L290.212109,302.270929 L296.976172,303.96208 L296.976172,310.726681 Z M277.783145,297.45115 L277.783145,275.804425 C276.373958,274.958845 274.175659,274.536062 271.188184,274.536062 C264.705925,274.536062 261.464844,279.327607 261.464844,288.910841 C261.464844,297.817611 264.170442,302.270929 269.581719,302.270929 C271.160008,302.270929 272.639632,301.862239 274.020635,301.044845 C275.401638,300.227452 276.373962,299.424163 276.937637,298.634956 L277.783145,297.45115 Z M346.692031,310.726681 L329.950977,311.318584 L328.429062,305.822345 C327.921755,306.273321 327.245356,306.851125 326.399844,307.555774 C325.554332,308.260424 323.933791,309.20464 321.538174,310.388451 C319.142556,311.572263 316.8738,312.164159 314.731836,312.164159 C310.617011,312.164159 307.404113,311.008551 305.093047,308.697301 C302.781981,306.38605 301.626465,303.116526 301.626465,298.888628 C301.626465,289.587254 308.39046,284.936637 321.918652,284.936637 L327.837207,284.936637 L327.837207,280.285973 C327.837207,276.058076 325.667092,273.944159 321.326797,273.944159 C320.030345,273.944159 318.762096,274.056902 317.522012,274.282389 C316.281927,274.507877 315.351878,274.733362 314.731836,274.95885 L313.886328,275.212522 L312.618066,280.708761 L305.008496,280.708761 L304.416641,268.194248 C311.237104,265.939369 317.352883,264.811947 322.76416,264.811947 C329.190052,264.811947 333.727565,266.066204 336.376836,268.574757 C339.026107,271.083309 340.350723,275.409792 340.350723,281.554336 L340.350723,302.440044 L346.692031,303.96208 L346.692031,310.726681 Z M313.801777,297.620265 C313.801777,301.002583 315.464593,302.693717 318.790273,302.693717 C320.143093,302.693717 321.56635,302.285026 323.060088,301.467633 C324.553826,300.650239 325.723433,299.818765 326.568945,298.973186 L327.837207,297.789381 L327.837207,292.124027 L323.017812,292.124027 C319.748499,292.124027 317.395193,292.560903 315.957822,293.434668 C314.520452,294.308434 313.801777,295.703619 313.801777,297.620265 Z" id="Finda" fill="#23001E"></path>
                <path d="M360.558359,266.503097 L360.558359,262.698009 C360.558359,257.173556 362.108442,252.804795 365.208652,249.591593 C368.308863,246.378391 372.761826,244.771814 378.567676,244.771814 C381.273314,244.771814 383.852087,245.039577 386.304072,245.575111 C388.756057,246.110644 390.545697,246.632077 391.673047,247.139425 L393.364062,247.900442 L393.11041,260.414956 L385.754492,260.414956 L384.48623,254.157699 C383.077044,253.932211 381.442412,253.819469 379.582285,253.819469 C375.24199,253.819469 373.071875,256.299798 373.071875,261.260531 L373.071875,266.503097 L384.063477,266.503097 L383.809824,274.95885 L373.071875,274.95885 L373.071875,302.440044 L381.18875,304.553982 L381.18875,311.318584 L353.794297,311.318584 L353.794297,304.553982 L360.558359,302.440044 L360.558359,274.95885 L352.948789,274.95885 L352.948789,267.77146 L360.558359,266.503097 Z M390.827539,266.333982 L410.020566,265.657522 L410.020566,302.440044 L415.939121,304.553982 L415.939121,311.318584 L390.827539,311.318584 L390.827539,304.553982 L397.591602,302.440044 L397.591602,274.789735 L390.827539,273.098584 L390.827539,266.333982 Z M395.985137,251.705531 C395.985137,249.39428 396.703811,247.548126 398.141182,246.167013 C399.578552,244.7859 401.283642,244.095354 403.256504,244.095354 C407.991371,244.095354 410.35877,246.632054 410.35877,251.705531 C410.35877,254.073153 409.640095,255.947493 408.202725,257.328606 C406.765354,258.709719 405.11663,259.400265 403.256504,259.400265 C400.945438,259.400265 399.155797,258.737905 397.887529,257.413164 C396.619261,256.088423 395.985137,254.185897 395.985137,251.705531 Z M420.251211,246.462965 L439.782441,245.786504 L439.782441,302.440044 L447.814766,304.553982 L447.814766,311.318584 L420.251211,311.318584 L420.251211,304.553982 L427.015273,302.440044 L427.015273,254.918717 L420.251211,253.227566 L420.251211,246.462965 Z M523.825918,280.032301 L523.825918,302.440044 L529.575371,304.553982 L529.575371,311.318584 L506.915762,311.318584 L506.915762,304.553982 L511.396953,302.440044 L511.396953,282.569027 C511.396953,280.201404 511.016478,278.453899 510.255518,277.32646 C509.494557,276.199021 508.240399,275.63531 506.493008,275.63531 C504.858351,275.63531 503.265994,276.001722 501.715889,276.734558 C500.165783,277.467393 499.024359,278.200218 498.291582,278.933053 L497.107871,280.032301 L497.107871,302.440044 L501.504512,304.553982 L501.504512,311.318584 L480.197715,311.318584 L480.197715,304.553982 L484.594355,302.440044 L484.594355,282.569027 C484.594355,280.145032 484.227972,278.383435 483.495195,277.284181 C482.762418,276.184928 481.522352,275.63531 479.774961,275.63531 C478.140304,275.63531 476.533856,276.001722 474.955566,276.734558 C473.377277,277.467393 472.193578,278.200218 471.404434,278.933053 L470.305273,280.032301 L470.305273,302.440044 L474.786465,304.553982 L474.786465,311.318584 L451.365898,311.318584 L451.365898,304.553982 L457.876309,302.440044 L457.876309,274.705177 L451.450449,273.098584 L451.450449,266.333982 L468.86791,265.657522 L469.459766,271.661106 C470.02344,271.153759 470.78439,270.519583 471.742637,269.758562 C472.700884,268.99754 474.476432,267.98286 477.069336,266.714491 C479.66224,265.446122 482.057821,264.811947 484.256152,264.811947 C489.836532,264.811947 493.669462,267.235905 495.755059,272.083894 C496.600571,271.238314 497.586987,270.364562 498.714336,269.462611 C499.841685,268.560659 501.617234,267.560072 504.041035,266.460819 C506.464836,265.361565 508.804051,264.811947 511.05875,264.811947 C515.28631,264.811947 518.471024,266.136668 520.612988,268.78615 C522.754952,271.435633 523.825918,275.184312 523.825918,280.032301 Z" id="film" fill="#FE3646"></path>
            </g>
        </g>
    </g>
</svg>