<?xml version="1.0" encoding="UTF-8"?>
<svg width="1110px" height="1110px" viewBox="0 0 1110 1110" version="1.1" xmlns="http://www.w3.org/2000/svg" xmlns:xlink="http://www.w3.org/1999/xlink">
    <!-- Generator: Sketch 53.2 (72643) - https://sketchapp.com -->
    <title>findafilm</title>
    <desc>Created with Sketch.</desc>
    <defs>
        <circle id="path-1" cx="511" cy="511" r="511"></circle>
        <filter x="-7.5%" y="-5.4%" width="115.1%" height="115.1%" filterUnits="objectBoundingBox" id="filter-2">
            <feOffset dx="0" dy="22" in="SourceAlpha" result="shadowOffsetOuter1"></feOffset>
            <feGaussianBlur stdDeviation="22" in="shadowOffsetOuter1" result="shadowBlurOuter1"></feGaussianBlur>
            <feColorMatrix values="0 0 0 0 0   0 0 0 0 0   0 0 0 0 0  0 0 0 0.139750874 0" type="matrix" in="shadowBlurOuter1"></feColorMatrix>
        </filter>
        <filter x="-15.9%" y="-17.8%" width="131.8%" height="135.5%" filterUnits="objectBoundingBox" id="filter-3">
            <feOffset dx="0" dy="13" in="SourceAlpha" result="shadowOffsetOuter1"></feOffset>
            <feGaussianBlur stdDeviation="16" in="shadowOffsetOuter1" result="shadowBlurOuter1"></feGaussianBlur>
            <feColorMatrix values="0 0 0 0 0   0 0 0 0 0   0 0 0 0 0  0 0 0 0.414035184 0" type="matrix" in="shadowBlurOuter1" result="shadowMatrixOuter1"></feColorMatrix>
            <feMerge>
                <feMergeNode in="shadowMatrixOuter1"></feMergeNode>
                <feMergeNode in="SourceGraphic"></feMergeNode>
            </feMerge>
        </filter>
    </defs>
    <g id="findafilm" stroke="none" stroke-width="1" fill="none" fill-rule="evenodd">
        <g id="Group-2" transform="translate(44.000000, 22.000000)">
            <g id="path-1-copy">
                <use fill="black" fill-opacity="1" filter="url(#filter-2)" xlink:href="#path-1"></use>
                <use fill="#FFFFFF" fill-rule="evenodd" xlink:href="#path-1"></use>
            </g>
            <g id="access" filter="url(#filter-3)" transform="translate(224.000000, 257.000000)" fill-rule="nonzero">
                <g id="Group" transform="translate(0.007035, 0.278545)">
                    <path d="M50.1541166,104.777911 L524.92666,104.777911 C524.92666,132.231668 547.41702,154.695854 574.904197,154.695854 L574.904197,354.355927 C547.418192,354.355927 524.92666,376.816603 524.92666,404.27036 L50.1541166,404.27036 C50.1541166,376.818943 27.6660991,354.355927 0.181265047,354.355927 L0.181265047,154.695854 C27.6660991,154.695854 50.1541166,132.231668 50.1541166,104.777911 Z" id="Path" stroke="#000000" stroke-width="9.89999941" fill="#FE3646"></path>
                    <rect id="Rectangle" fill="#F1FDFF" x="62.6508434" y="167.175047" width="449.781433" height="174.704026"></rect>
                    <path d="M243.075046,97.583499 L344.240084,0.138664866 C362.060424,17.3025577 391.221405,17.3025577 409.038231,0.138664866 L510.200927,97.583499 L243.075046,97.583499 L243.075046,97.583499 Z M332.008074,413.258696 L230.840693,514.303076 C213.025038,496.505573 183.867571,496.505573 166.048403,514.303076 L64.8810213,413.258696 L332.008074,413.258696 Z" id="Shape" stroke="#000000" stroke-width="6.29999962" fill="#17A2B8"></path>
                </g>
                <g id="Group" transform="translate(49.826209, 46.763679)" fill="#000003">
                    <path d="M462.614273,108.206041 L12.8316693,108.206041 C5.93147078,108.206041 0.33728507,113.793425 0.33728507,120.685234 L0.33728507,295.38809 C0.33728507,302.279899 5.93264209,307.867283 12.8316693,307.867283 L462.615445,307.867283 C469.515643,307.867283 475.109829,302.278729 475.109829,295.38809 L475.109829,120.686404 C475.109829,113.793425 469.514472,108.206041 462.614273,108.206041 Z M14.7372851,123.194399 L460.537285,123.194399 L460.537285,292.862618 L14.7372851,292.862618 L14.7372851,123.194399 Z" id="Shape"></path>
                    <path d="M150.873121,394.34305 L150.662285,394.55363 C145.782599,399.427383 145.782599,407.327635 150.662285,412.202558 C153.100956,414.639434 156.30098,415.858457 159.497491,415.858457 C162.695172,415.858457 165.894025,414.640604 168.332696,412.202558 L168.543533,411.991978 C173.422047,407.118225 173.422047,399.217973 168.543533,394.34305 C163.663847,389.469298 155.752807,389.469298 150.873121,394.34305 Z" id="Path"></path>
                    <path d="M311.335826,25.3885126 C314.503053,25.3885126 317.673794,24.1928873 320.10778,21.7969571 L320.318617,21.5898869 C325.234613,16.7512309 325.292007,8.85097855 320.447461,3.94095941 C315.604086,-0.967889834 307.694217,-1.02521434 302.777049,3.81227176 L302.566213,4.02051179 C297.650217,8.85799788 297.593994,16.7594201 302.436198,21.6694393 C304.879554,24.1460918 308.105347,25.3885126 311.335826,25.3885126 Z" id="Path"></path>
                </g>
                <path d="M125.738881,272.754024 L125.738881,279.369739 L101.223323,279.369739 L101.223323,272.754024 C102.492251,272.297765 104.395614,271.664082 106.933469,270.852956 L106.933469,234.73267 L101.223323,232.451389 L101.223323,226.139844 L118.734436,225.759631 L140.052313,225.759631 L140.052313,240.207745 L132.971733,240.207745 L131.068351,234.73267 L118.734436,234.73267 L118.734436,248.192229 L134.494438,248.192229 L134.494438,256.556927 L118.734436,256.556927 L118.734436,270.852956 C122.69349,271.917559 125.028282,272.551242 125.738881,272.754024 Z M144.62043,238.915019 L161.903137,238.306677 L161.903137,271.385255 L167.232606,273.286323 L167.232606,279.369739 L144.62043,279.369739 L144.62043,273.286323 L150.711252,271.385255 L150.711252,246.51929 L144.62043,244.998436 L144.62043,238.915019 Z M149.264681,225.759631 C149.264681,223.68112 149.911825,222.02087 151.206131,220.778833 C152.500437,219.536796 154.035816,218.915787 155.812315,218.915787 C160.075912,218.915787 162.207678,221.197045 162.207678,225.759631 C162.207678,227.888837 161.560535,229.574434 160.266228,230.816471 C158.971922,232.058508 157.487299,232.679517 155.812315,232.679517 C153.731274,232.679517 152.11976,232.083855 150.977725,230.892513 C149.83569,229.701172 149.264681,227.990228 149.264681,225.759631 Z M171.876858,238.915019 L187.63686,238.306677 L188.169807,243.553624 C188.728135,243.097366 189.464102,242.552398 190.37773,241.918706 C191.291357,241.285014 192.979006,240.423205 195.440725,239.333254 C197.902445,238.243303 200.148413,237.698336 202.178697,237.698336 C205.833209,237.698336 208.637496,238.902333 210.591645,241.310364 C212.545793,243.718395 213.522853,247.02622 213.522853,251.233938 L213.522853,271.385255 C214.182695,271.588037 215.121688,271.917552 216.339858,272.37381 C217.558029,272.830069 218.395508,273.134237 218.852322,273.286323 L218.852322,279.369739 L198.295798,279.369739 L198.295798,273.286323 L202.330968,271.385255 L202.330968,252.98292 C202.330968,251.208581 201.861471,249.751111 200.922465,248.610464 C199.983459,247.469818 198.727239,246.899503 197.153769,246.899503 C195.73257,246.899503 194.34946,247.267039 193.004396,248.002123 C191.659333,248.737206 190.656895,249.459604 189.997053,250.16934 L189.007295,251.233938 L189.007295,271.385255 L192.966329,273.286323 L192.966329,279.369739 L171.876858,279.369739 L171.876858,273.286323 L177.739274,271.385255 L177.739274,246.51929 L171.876858,244.998436 L171.876858,238.915019 Z M266.817545,278.837441 L250.829137,279.369739 L250.14392,275.339476 C246.946222,278.533286 243.114119,280.130167 238.647494,280.130167 C233.419512,280.130167 229.511274,278.355854 226.922661,274.807177 C224.334049,271.2585 223.039762,266.265078 223.039762,259.826764 C223.039762,252.628018 224.854302,247.114977 228.483434,243.287475 C232.112567,239.459973 237.48005,237.54625 244.586045,237.54625 C246.261029,237.54625 247.91061,237.799723 249.534838,238.306677 L249.534838,228.649253 L243.444016,227.128399 L243.444016,221.044983 L260.726723,220.436641 L260.726723,271.23317 L266.817545,272.754024 L266.817545,278.837441 Z M249.534838,266.898735 L249.534838,247.431802 C248.26591,246.671371 246.286413,246.291162 243.596286,246.291162 C237.759219,246.291162 234.84073,250.600205 234.84073,259.218422 C234.84073,267.228294 237.277034,271.23317 242.149716,271.23317 C243.570915,271.23317 244.903269,270.865634 246.146818,270.13055 C247.390367,269.395467 248.265914,268.673069 248.773485,267.963333 L249.534838,266.898735 Z M311.585086,278.837441 L296.510302,279.369739 L295.139867,274.426963 C294.683053,274.832527 294.073977,275.352147 293.312621,275.985839 C292.551264,276.619531 291.092019,277.468666 288.934842,278.53327 C286.777665,279.597873 284.734723,280.130167 282.805953,280.130167 C279.100684,280.130167 276.207573,279.090927 274.126531,277.012416 C272.04549,274.933904 271.004985,271.993616 271.004985,268.191461 C271.004985,259.826722 277.095746,255.644415 289.277451,255.644415 L294.60692,255.644415 L294.60692,251.462066 C294.60692,247.659911 292.652801,245.758863 288.744504,245.758863 C287.577091,245.758863 286.435073,245.860252 285.318417,246.063034 C284.201761,246.265815 283.364281,246.468594 282.805953,246.671375 L282.0446,246.899503 L280.902571,251.842279 L274.050396,251.842279 L273.517449,240.587959 C279.659059,238.560143 285.166122,237.54625 290.038804,237.54625 C295.825114,237.54625 299.910999,238.674206 302.296583,240.930151 C304.682167,243.186096 305.874941,247.076909 305.874941,252.602706 L305.874941,271.385255 L311.585086,272.754024 L311.585086,278.837441 Z M281.968465,267.050821 C281.968465,270.092544 283.465777,271.613383 286.460446,271.613383 C287.678616,271.613383 288.960214,271.245847 290.305277,270.510764 C291.650341,269.775681 292.703535,269.027935 293.464891,268.267504 L294.60692,267.202906 L294.60692,262.108045 L290.26721,262.108045 C287.323298,262.108045 285.20422,262.500928 283.909914,263.286707 C282.615608,264.072485 281.968465,265.327178 281.968465,267.050821 Z" id="Finda" fill="#23001E"></path>
                <path d="M324.071271,239.067104 L324.071271,235.645183 C324.071271,230.677034 325.467071,226.7482 328.258712,223.858563 C331.050352,220.968926 335.060103,219.524129 340.288085,219.524129 C342.724426,219.524129 345.046529,219.764928 347.254463,220.246534 C349.462397,220.728141 351.07391,221.197066 352.089053,221.653324 L353.611758,222.337709 L353.383352,233.592029 L346.759583,233.592029 L345.617554,227.964869 C344.348627,227.762088 342.876693,227.660698 341.201708,227.660698 C337.293411,227.660698 335.339292,229.891262 335.339292,234.352457 L335.339292,239.067104 L345.236878,239.067104 L345.008472,246.671375 L335.339292,246.671375 L335.339292,271.385255 L342.648278,273.286323 L342.648278,279.369739 L317.98045,279.369739 L317.98045,273.286323 L324.071271,271.385255 L324.071271,246.671375 L317.219097,246.671375 L317.219097,240.207745 L324.071271,239.067104 Z M351.3277,238.915019 L368.610407,238.306677 L368.610407,271.385255 L373.939876,273.286323 L373.939876,279.369739 L351.3277,279.369739 L351.3277,273.286323 L357.418522,271.385255 L357.418522,246.51929 L351.3277,244.998436 L351.3277,238.915019 Z M355.971952,225.759631 C355.971952,223.68112 356.619095,222.02087 357.913401,220.778833 C359.207707,219.536796 360.743086,218.915787 362.519585,218.915787 C366.783182,218.915787 368.914948,221.197045 368.914948,225.759631 C368.914948,227.888837 368.267805,229.574434 366.973499,230.816471 C365.679193,232.058508 364.19457,232.679517 362.519585,232.679517 C360.438544,232.679517 358.82703,232.083855 357.684995,230.892513 C356.54296,229.701172 355.971952,227.990228 355.971952,225.759631 Z M377.822775,221.044983 L395.410024,220.436641 L395.410024,271.385255 L402.642875,273.286323 L402.642875,279.369739 L377.822775,279.369739 L377.822775,273.286323 L383.913597,271.385255 L383.913597,228.649253 L377.822775,227.128399 L377.822775,221.044983 Z M471.088487,251.233938 L471.088487,271.385255 L476.265685,273.286323 L476.265685,279.369739 L455.861432,279.369739 L455.861432,273.286323 L459.896601,271.385255 L459.896601,253.515219 C459.896601,251.386012 459.553996,249.814479 458.868775,248.800571 C458.183554,247.786663 457.054225,247.279717 455.480755,247.279717 C454.008799,247.279717 452.574933,247.609232 451.179112,248.268272 C449.783292,248.927312 448.755476,249.586342 448.095634,250.245382 L447.02974,251.233938 L447.02974,271.385255 L450.988774,273.286323 L450.988774,279.369739 L431.802685,279.369739 L431.802685,273.286323 L435.761719,271.385255 L435.761719,253.515219 C435.761719,251.335317 435.431803,249.75111 434.771961,248.76255 C434.112118,247.77399 432.995479,247.279717 431.422009,247.279717 C429.950053,247.279717 428.503497,247.609232 427.082298,248.268272 C425.661099,248.927312 424.595216,249.586342 423.884616,250.245382 L422.894858,251.233938 L422.894858,271.385255 L426.930027,273.286323 L426.930027,279.369739 L405.840556,279.369739 L405.840556,273.286323 L411.702972,271.385255 L411.702972,246.443247 L405.916692,244.998436 L405.916692,238.915019 L421.600558,238.306677 L422.133505,243.70571 C422.641076,243.249451 423.326287,242.679136 424.189157,241.994749 C425.052028,241.310361 426.650853,240.397858 428.98568,239.257211 C431.320506,238.116565 433.477651,237.54625 435.457178,237.54625 C440.482131,237.54625 443.933563,239.726119 445.811575,244.085923 C446.572932,243.325492 447.461168,242.539725 448.47631,241.728599 C449.491452,240.917473 451.090277,240.017643 453.272832,239.029083 C455.455388,238.040523 457.561776,237.54625 459.59206,237.54625 C463.398843,237.54625 466.266576,238.737574 468.195346,241.120258 C470.124116,243.502941 471.088487,246.874134 471.088487,251.233938 Z" id="film" fill="#FE3646"></path>
            </g>
        </g>
    </g>
</svg>