<?xml version="1.0" encoding="UTF-8"?>
<svg width="55px" height="59px" viewBox="0 0 55 59" version="1.1" xmlns="http://www.w3.org/2000/svg" xmlns:xlink="http://www.w3.org/1999/xlink">
    <!-- Generator: Sketch 52.6 (67491) - http://www.bohemiancoding.com/sketch -->
    <title>share</title>
    <desc>Created with Sketch.</desc>
    <g id="Page-1" stroke="none" stroke-width="1" fill="none" fill-rule="evenodd">
        <g id="share" transform="translate(-1.000000, 0.000000)" fill-rule="nonzero">
            <path d="M38.927,41.929 C38.403,42.453 37.952,43.029 37.562,43.638 L20.282,33.149 C20.739,32.005 20.998,30.761 20.998,29.456 C20.998,28.151 20.739,26.907 20.283,25.763 L37.567,15.354 C39.342,18.142 42.454,20 45.998,20 C51.512,20 55.998,15.514 55.998,10 C55.998,4.486 51.512,0 45.998,0 C40.484,0 35.998,4.486 35.998,10 C35.998,11.256 36.241,12.454 36.665,13.562 L19.358,23.985 C17.57,21.261 14.492,19.456 10.997,19.456 C5.483,19.456 0.997,23.942 0.997,29.456 C0.997,34.97 5.483,39.456 10.997,39.456 C14.492,39.456 17.569,37.651 19.357,34.927 L36.661,45.43 C36.231,46.556 35.997,47.759 35.997,49 C35.997,51.671 37.037,54.183 38.926,56.071 C40.875,58.02 43.436,58.995 45.997,58.995 C48.558,58.995 51.119,58.02 53.068,56.071 C54.957,54.182 55.997,51.671 55.997,49 C55.997,46.329 54.957,43.817 53.068,41.929 C49.169,38.029 42.826,38.029 38.927,41.929 Z" id="Path" fill="#000000"></path>
            <path d="M45.998,2 C50.409,2 53.998,5.589 53.998,10 C53.998,14.411 50.409,18 45.998,18 C41.587,18 37.998,14.411 37.998,10 C37.998,5.589 41.586,2 45.998,2 Z" id="Path" fill="#FFFFFF"></path>
            <path d="M10.998,37.456 C6.587,37.456 2.998,33.867 2.998,29.456 C2.998,25.045 6.587,21.456 10.998,21.456 C15.409,21.456 18.998,25.045 18.998,29.456 C18.998,33.867 15.409,37.456 10.998,37.456 Z" id="Path" fill="#FFFFFF"></path>
            <path d="M51.654,54.657 C48.535,57.776 43.46,57.776 40.341,54.657 C38.83,53.146 37.998,51.136 37.998,49 C37.998,46.864 38.83,44.854 40.341,43.343 C41.901,41.783 43.949,41.004 45.998,41.004 C48.047,41.004 50.095,41.783 51.655,43.343 C53.166,44.854 53.998,46.864 53.998,49 C53.998,51.136 53.166,53.146 51.654,54.657 Z" id="Path" fill="#FFFFFF"></path>
        </g>
    </g>
</svg>