<?xml version="1.0" encoding="UTF-8"?>
<svg width="354px" height="324px" viewBox="0 0 354 324" version="1.1" xmlns="http://www.w3.org/2000/svg" xmlns:xlink="http://www.w3.org/1999/xlink">
    <!-- Generator: Sketch 53.2 (72643) - https://sketchapp.com -->
    <title>data</title>
    <desc>Created with Sketch.</desc>
    <defs>
        <circle id="path-1" cx="177" cy="162" r="142"></circle>
        <filter x="-9.5%" y="-5.3%" width="119.0%" height="119.0%" filterUnits="objectBoundingBox" id="filter-2">
            <feOffset dx="0" dy="12" in="SourceAlpha" result="shadowOffsetOuter1"></feOffset>
            <feGaussianBlur stdDeviation="7" in="shadowOffsetOuter1" result="shadowBlurOuter1"></feGaussianBlur>
            <feColorMatrix values="0 0 0 0 0   0 0 0 0 0   0 0 0 0 0  0 0 0 0.134451486 0" type="matrix" in="shadowBlurOuter1"></feColorMatrix>
        </filter>
    </defs>
    <g id="data" stroke="none" stroke-width="1" fill="none" fill-rule="evenodd">
        <g id="Oval">
            <use fill="black" fill-opacity="1" filter="url(#filter-2)" xlink:href="#path-1"></use>
            <use fill="#FFFFFF" fill-rule="evenodd" xlink:href="#path-1"></use>
        </g>
        <g id="data-(2)" transform="translate(106.000000, 91.000000)" fill-rule="nonzero">
            <polygon id="Path" fill="#5A5A5A" points="51.0800018 115.849518 90.7564087 115.849518 90.7564087 132.271301 51.0800018 132.271301"></polygon>
            <path d="M134.555054,118.149521 L7.28135674,118.149521 C3.25987237,118.149521 -2.84217094e-14,114.889648 -2.84217094e-14,110.868164 L-2.84217094e-14,7.28135674 C-2.84217094e-14,3.25987237 3.25987237,-2.84217094e-14 7.28135674,-2.84217094e-14 L134.555054,-2.84217094e-14 C138.576538,-2.84217094e-14 141.83641,3.25987237 141.83641,7.28135674 L141.83641,110.868164 C141.83641,114.889648 138.576538,118.149521 134.555054,118.149521 Z" id="Path" fill="#FFD86E"></path>
            <path d="M141.837494,7.28244005 L141.837494,110.868164 C141.837494,114.889648 138.577621,118.149521 134.556137,118.149521 L125.661636,118.149521 C129.683121,118.149521 132.942993,114.889648 132.942993,110.868164 L132.942993,7.28244005 C132.942993,3.26095567 129.683121,0.00108337402 125.661636,0.00108337402 L134.556137,0.00108337402 C138.577621,0.00108337402 141.837494,3.26095567 141.837494,7.28244005 L141.837494,7.28244005 Z" id="Path" fill="#FFB509"></path>
            <path d="M141.83641,100.607529 L0,100.607529 L0,110.868164 C0,114.889648 3.25987237,118.149521 7.28135674,118.149521 L134.555054,118.149521 C138.576538,118.149521 141.83641,114.889648 141.83641,110.868164 L141.83641,100.607529 Z" id="Path" fill="#838383"></path>
            <path d="M141.837494,100.606445 L141.837494,110.868164 C141.837494,114.889648 138.577621,118.149521 134.556137,118.149521 L125.661636,118.149521 C129.683121,118.149521 132.942993,114.889648 132.942993,110.868164 L132.942993,100.606445 L141.837494,100.606445 Z" id="Path" fill="#5A5A5A"></path>
            <path d="M141.998917,24.8395996 L0.158172469,24.8395996 L0.158172469,7.28135674 C0.158172469,3.25987237 3.41804511,0 7.43844591,0 L134.71756,0 C138.739044,0 141.998917,3.25987237 141.998917,7.28135674 L141.998917,24.8395996 Z" id="Path" fill="#ACACAC"></path>
            <path d="M142,7.28027344 L142,24.8406829 L132.942993,24.8406829 L132.942993,7.28027344 C132.942993,3.26095567 129.683121,0.00108337402 125.660553,0.00108337402 L134.718643,0.00108337402 C138.740128,0.00108337402 142,3.26095567 142,7.28027344 Z" id="Path" fill="#9C9C9C"></path>
            <path d="M103.613892,141.840744 L38.2225189,141.840744 C37.4349059,141.840744 36.7957153,141.201553 36.7957153,140.41394 L36.7957153,135.789017 C36.7957153,132.652649 39.3383942,130.10997 42.4747621,130.10997 L99.3616486,130.10997 C102.498016,130.10997 105.040695,132.652649 105.040695,135.789017 L105.040695,140.41394 C105.040695,141.201553 104.401505,141.840744 103.613892,141.840744 Z" id="Path" fill="#838383"></path>
            <path d="M105.040695,135.787933 L105.040695,140.415024 C105.040695,141.202637 104.401505,141.841828 103.612808,141.841828 L98.5751189,141.841828 L98.5751189,135.787933 C98.5751189,132.653732 96.03244,130.10997 92.8982391,130.10997 L99.3638152,130.10997 C102.4991,130.10997 105.040695,132.652649 105.040695,135.787933 L105.040695,135.787933 Z" id="Path" fill="#5A5A5A"></path>
            <g id="Group" transform="translate(7.210938, 34.113281)" fill="#838383">
                <path d="M9.00717149,17.6091615 C8.47523505,17.6091615 7.94221504,17.4065705 7.53594971,17.0003052 L0.824447563,10.2877197 C0.0119171836,9.47627265 0.0119171836,8.15888984 0.824447563,7.34635918 L7.53594971,0.634857039 C8.34848009,-0.17767334 9.6658629,-0.17767334 10.4783936,0.634857039 C11.2909242,1.4473877 11.2909242,2.7636872 10.4783936,3.57621758 L5.23702989,8.81758125 L10.4783936,14.0589446 C11.2909242,14.8714753 11.2909242,16.1877748 10.4783936,17.0003052 C10.0721282,17.4065705 9.53910821,17.6091615 9.00717149,17.6091615 Z" id="Path"></path>
                <path d="M25.0541078,17.6091615 C24.5221711,17.6091615 23.9891511,17.4065705 23.5828857,17.0003052 C22.7703551,16.1877748 22.7703551,14.870392 23.5828857,14.0589446 L28.8242494,8.81758125 L23.5828857,3.57621758 C22.7703551,2.7636872 22.7703551,1.44630439 23.5828857,0.634857039 C24.3954164,-0.17767334 25.7127992,-0.17767334 26.5253296,0.634857039 L33.2368317,7.34635918 C34.0493621,8.15888984 34.0493621,9.47627265 33.2368317,10.2877197 L26.5253296,17.0003052 C26.1190643,17.4065705 25.5860442,17.6091615 25.0541078,17.6091615 Z" id="Path"></path>
                <path d="M14.6222991,17.6102448 C14.3687897,17.6102448 14.1120299,17.5636597 13.8617707,17.4650726 C12.7924805,17.045807 12.2659606,15.8378449 12.68631,14.7685547 L17.9601744,1.34446709 C18.3805238,0.276260445 19.5884856,-0.251342773 20.6566926,0.169006348 C21.7259828,0.589355469 22.2525024,1.79731757 21.8321533,2.8666078 L16.5582886,16.2896118 C16.2365266,17.1097259 15.4521638,17.6102448 14.6222991,17.6102448 Z" id="Path"></path>
                <path d="M17.9287566,30.1697998 L3.50688164,30.1697998 C2.35850518,30.1697998 1.42680352,29.2380981 1.42680352,28.0897217 C1.42680352,26.9402619 2.35850518,26.0096436 3.50688164,26.0096436 L17.9287566,26.0096436 C19.0782164,26.0096436 20.0088348,26.9402619 20.0088348,28.0897217 C20.0088348,29.2380981 19.0782164,30.1697998 17.9287566,30.1697998 Z" id="Path"></path>
                <path d="M51.1471711,30.1697998 L25.7908021,30.1697998 C24.6424254,30.1697998 23.710724,29.2380981 23.710724,28.0897217 C23.710724,26.9402619 24.6424254,26.0096436 25.7908021,26.0096436 L51.1471711,26.0096436 C52.2966309,26.0096436 53.2272492,26.9402619 53.2272492,28.0897217 C53.2272492,29.2380981 52.2966309,30.1697998 51.1471711,30.1697998 Z" id="Path"></path>
                <path d="M9.6506958,39.1986391 L3.50688164,39.1986391 C2.35850518,39.1986391 1.42680352,38.2680207 1.42680352,37.1185609 C1.42680352,35.9701842 2.35850518,35.0384828 3.50688164,35.0384828 L9.6506958,35.0384828 C10.8001556,35.0384828 11.7307739,35.9701842 11.7307739,37.1185609 C11.7307739,38.2680207 10.7990723,39.1986391 9.6506958,39.1986391 Z" id="Path"></path>
                <path d="M47.0563508,39.1986391 L43.3143768,39.1986391 C42.1660003,39.1986391 41.2342986,38.2680207 41.2342986,37.1185609 C41.2342986,35.9701842 42.1660003,35.0384828 43.3143768,35.0384828 L47.0563508,35.0384828 C48.2047272,35.0384828 49.1364289,35.9701842 49.1364289,37.1185609 C49.1364289,38.2680207 48.2047272,39.1986391 47.0563508,39.1986391 Z" id="Path"></path>
                <path d="M35.5390015,39.1986391 L17.1628111,39.1986391 C16.0133514,39.1986391 15.082733,38.2680207 15.082733,37.1185609 C15.082733,35.9701842 16.0133514,35.0384828 17.1628111,35.0384828 L35.5390015,35.0384828 C36.6884612,35.0384828 37.6190796,35.9701842 37.6190796,37.1185609 C37.6190796,38.2680207 36.6873779,39.1986391 35.5390015,39.1986391 Z" id="Path"></path>
                <path d="M60.8531188,39.1986391 L53.8447723,39.1986391 C52.6963958,39.1986391 51.7646941,38.2680207 51.7646941,37.1185609 C51.7646941,35.9701842 52.6963958,35.0384828 53.8447723,35.0384828 L60.8531188,35.0384828 C62.0014955,35.0384828 62.9331969,35.9701842 62.9331969,37.1185609 C62.9331969,38.2680207 62.0014955,39.1986391 60.8531188,39.1986391 Z" id="Path"></path>
                <path d="M47.4366149,10.4729768 L40.0447541,10.4729768 C38.8952943,10.4729768 37.964676,9.5423584 37.964676,8.39289863 C37.964676,7.24452216 38.8952943,6.3128205 40.0447541,6.3128205 L47.4366149,6.3128205 C48.5860749,6.3128205 49.516693,7.24452216 49.516693,8.39289863 C49.516693,9.5423584 48.5860749,10.4729768 47.4366149,10.4729768 Z" id="Path"></path>
                <path d="M100.815536,10.4729768 L55.714676,10.4729768 C54.5662995,10.4729768 53.6345978,9.5423584 53.6345978,8.39289863 C53.6345978,7.24452216 54.5662995,6.3128205 55.714676,6.3128205 L100.815536,6.3128205 C101.963913,6.3128205 102.895615,7.24452216 102.895615,8.39289863 C102.895615,9.5423584 101.963913,10.4729768 100.815536,10.4729768 Z" id="Path"></path>
                <path d="M93.9642791,19.8929137 L75.6964265,19.8929137 C74.5469664,19.8929137 73.6163483,18.9622956 73.6163483,17.8128356 C73.6163483,16.6644594 74.5469664,15.7327574 75.6964265,15.7327574 L93.9642791,15.7327574 C95.1137389,15.7327574 96.0443572,16.6644594 96.0443572,17.8128356 C96.0443572,18.9622956 95.1137389,19.8929137 93.9642791,19.8929137 Z" id="Path"></path>
                <path d="M68.8451691,19.8929137 L62.56485,19.8929137 C61.4164733,19.8929137 60.4847719,18.9622956 60.4847719,17.8128356 C60.4847719,16.6644594 61.4164733,15.7327574 62.56485,15.7327574 L68.8451691,15.7327574 C69.9946289,15.7327574 70.9252473,16.6644594 70.9252473,17.8128356 C70.9252473,18.9622956 69.9946289,19.8929137 68.8451691,19.8929137 Z" id="Path"></path>
                <path d="M55.4297485,19.8929137 L40.0436705,19.8929137 C38.8952943,19.8929137 37.9635924,18.9622956 37.9635924,17.8128356 C37.9635924,16.6644594 38.8952943,15.7327574 40.0436705,15.7327574 L55.4297485,15.7327574 C56.578125,15.7327574 57.5098267,16.6644594 57.5098267,17.8128356 C57.5098267,18.9622956 56.578125,19.8929137 55.4297485,19.8929137 Z" id="Path"></path>
                <path d="M35.5660857,48.1527253 L21.1442107,48.1527253 C19.994751,48.1527253 19.0641326,47.2210236 19.0641326,46.0726472 C19.0641326,44.9231871 19.994751,43.992569 21.1442107,43.992569 L35.5660857,43.992569 C36.7155455,43.992569 37.6461639,44.9231871 37.6461639,46.0726472 C37.6461639,47.2210236 36.7155455,48.1527253 35.5660857,48.1527253 Z" id="Path"></path>
                <path d="M14.5876312,48.1527253 L3.50688164,48.1527253 C2.35850518,48.1527253 1.42680352,47.2210236 1.42680352,46.0726472 C1.42680352,44.9231871 2.35850518,43.992569 3.50688164,43.992569 L14.5876312,43.992569 C15.7360076,43.992569 16.6677093,44.9231871 16.6677093,46.0726472 C16.6677093,47.2210236 15.7360076,48.1527253 14.5876312,48.1527253 Z" id="Path"></path>
                <path d="M61.7089844,48.1527253 L42.8701936,48.1527253 C41.7207338,48.1527253 40.7901154,47.2210236 40.7901154,46.0726472 C40.7901154,44.9231871 41.7207338,43.992569 42.8701936,43.992569 L61.7089844,43.992569 C62.8584441,43.992569 63.7890625,44.9231871 63.7890625,46.0726472 C63.7890625,47.2210236 62.8584441,48.1527253 61.7089844,48.1527253 Z" id="Path"></path>
            </g>
            <polygon id="Path" fill="#64DCFC" points="82.2779234 73.0497437 128.636581 73.0497437 128.636581 88.7489167 82.2779234 88.7489167"></polygon>
            <polygon id="Path" fill="#64DCFC" points="82.2779234 97.311905 128.636581 97.311905 128.636581 111.870285 82.2779234 111.870285"></polygon>
            <polygon id="Path" fill="#00D1FC" points="123.154709 73.0497437 128.636581 73.0497437 128.636581 88.7489167 123.154709 88.7489167"></polygon>
            <polygon id="Path" fill="#00D1FC" points="123.154709 97.311905 128.636581 97.311905 128.636581 111.870285 123.154709 111.870285"></polygon>
            <path d="M132.474976,76.4602051 L78.4395295,76.4602051 C77.2965698,76.4602051 76.370285,75.5339202 76.370285,74.3909606 L76.370285,63.9862367 C76.370285,62.843277 77.2965698,61.9169922 78.4395295,61.9169922 L132.474976,61.9169922 C133.617935,61.9169922 134.54422,62.843277 134.54422,63.9862367 L134.54422,74.3909606 C134.54422,75.5339202 133.617935,76.4602051 132.474976,76.4602051 Z" id="Path" fill="#0396FD"></path>
            <path d="M132.474976,99.7906647 L78.4395295,99.7906647 C77.2965698,99.7906647 76.370285,98.8643799 76.370285,97.7214202 L76.370285,87.3166961 C76.370285,86.1737367 77.2965698,85.2474519 78.4395295,85.2474519 L132.474976,85.2474519 C133.617935,85.2474519 134.54422,86.1737367 134.54422,87.3166961 L134.54422,97.7214202 C134.54422,98.8643799 133.617935,99.7906647 132.474976,99.7906647 Z" id="Path" fill="#0396FD"></path>
            <path d="M132.474976,123.121124 L78.4395295,123.121124 C77.2965698,123.121124 76.370285,122.19484 76.370285,121.05188 L76.370285,110.647156 C76.370285,109.504196 77.2965698,108.577912 78.4395295,108.577912 L132.474976,108.577912 C133.617935,108.577912 134.54422,109.504196 134.54422,110.647156 L134.54422,121.05188 C134.54422,122.19484 133.617935,123.121124 132.474976,123.121124 Z" id="Path" fill="#0396FD"></path>
            <path d="M134.54422,63.9862367 L134.54422,74.3909606 C134.54422,75.5328369 133.619019,76.4602051 132.474976,76.4602051 L127.673462,76.4602051 C128.818588,76.4602051 129.742706,75.5328369 129.742706,74.3909606 L129.742706,63.9862367 C129.742706,62.8443604 128.818588,61.9169922 127.673462,61.9169922 L132.474976,61.9169922 C133.619019,61.9169922 134.54422,62.8443604 134.54422,63.9862367 Z" id="Path" fill="#0077F0"></path>
            <path d="M134.54422,87.3156128 L134.54422,97.7203369 C134.54422,98.8654632 133.619019,99.7906647 132.474976,99.7906647 L127.673462,99.7906647 C128.818588,99.7906647 129.742706,98.8654632 129.742706,97.7203369 L129.742706,87.3156128 C129.742706,86.1737367 128.818588,85.2463685 127.673462,85.2463685 L132.474976,85.2463685 C133.619019,85.2463685 134.54422,86.1737367 134.54422,87.3156128 Z" id="Path" fill="#0077F0"></path>
            <path d="M134.54422,110.648239 L134.54422,121.052963 C134.54422,122.19484 133.619019,123.122208 132.474976,123.122208 L127.673462,123.122208 C128.818588,123.122208 129.742706,122.19484 129.742706,121.052963 L129.742706,110.648239 C129.742706,109.504196 128.818588,108.578995 127.673462,108.578995 L132.474976,108.578995 C133.619019,108.578995 134.54422,109.504196 134.54422,110.648239 Z" id="Path" fill="#0077F0"></path>
            <path d="M94.3976287,71.2686768 L84.0958252,71.2686768 C82.9474487,71.2686768 82.0157471,70.3380584 82.0157471,69.1885986 C82.0157471,68.0402222 82.9474487,67.1085205 84.0958252,67.1085205 L94.3987123,67.1085205 C95.5470885,67.1085205 96.4787904,68.0402222 96.4787904,69.1885986 C96.4787904,70.3380584 95.5470885,71.2686768 94.3976287,71.2686768 Z" id="Path" fill="#E7E7E7"></path>
            <path d="M126.81868,71.2686768 L112.274383,71.2686768 C111.126007,71.2686768 110.194305,70.3380584 110.194305,69.1885986 C110.194305,68.0402222 111.126007,67.1085205 112.274383,67.1085205 L126.817596,67.1085205 C127.967056,67.1085205 128.897674,68.0402222 128.897674,69.1885986 C128.897674,70.3380584 127.967056,71.2686768 126.81868,71.2686768 L126.81868,71.2686768 Z" id="Path" fill="#E7E7E7"></path>
            <path d="M105.002777,71.2686768 L101.669235,71.2686768 C100.520859,71.2686768 99.589157,70.3380584 99.589157,69.1885986 C99.589157,68.0402222 100.520859,67.1085205 101.669235,67.1085205 L105.002777,67.1085205 C106.152237,67.1085205 107.082855,68.0402222 107.082855,69.1885986 C107.082855,70.3380584 106.151154,71.2686768 105.002777,71.2686768 L105.002777,71.2686768 Z" id="Path" fill="#E7E7E7"></path>
            <path d="M94.3976287,94.5991364 L84.0958252,94.5991364 C82.9474487,94.5991364 82.0157471,93.6685181 82.0157471,92.5190583 C82.0157471,91.3706818 82.9474487,90.4389802 84.0958252,90.4389802 L94.3987123,90.4389802 C95.5470885,90.4389802 96.4787904,91.3706818 96.4787904,92.5190583 C96.4787904,93.6685181 95.5470885,94.5991364 94.3976287,94.5991364 Z" id="Path" fill="#E7E7E7"></path>
            <path d="M126.81868,94.5991364 L112.274383,94.5991364 C111.126007,94.5991364 110.194305,93.6685181 110.194305,92.5190583 C110.194305,91.3706818 111.126007,90.4389802 112.274383,90.4389802 L126.817596,90.4389802 C127.967056,90.4389802 128.897674,91.3706818 128.897674,92.5190583 C128.897674,93.6685181 127.967056,94.5991364 126.81868,94.5991364 L126.81868,94.5991364 Z" id="Path" fill="#E7E7E7"></path>
            <path d="M105.002777,94.5991364 L101.669235,94.5991364 C100.520859,94.5991364 99.589157,93.6685181 99.589157,92.5190583 C99.589157,91.3706818 100.520859,90.4389802 101.669235,90.4389802 L105.002777,90.4389802 C106.152237,90.4389802 107.082855,91.3706818 107.082855,92.5190583 C107.082855,93.6685181 106.151154,94.5991364 105.002777,94.5991364 L105.002777,94.5991364 Z" id="Path" fill="#E7E7E7"></path>
            <path d="M94.3976287,117.929596 L84.0958252,117.929596 C82.9474487,117.929596 82.0157471,116.997894 82.0157471,115.849518 C82.0157471,114.701141 82.9474487,113.76944 84.0958252,113.76944 L94.3987123,113.76944 C95.5470885,113.76944 96.4787904,114.701141 96.4787904,115.849518 C96.4787904,116.997894 95.5470885,117.929596 94.3976287,117.929596 Z" id="Path" fill="#E7E7E7"></path>
            <path d="M126.81868,117.929596 L112.274383,117.929596 C111.126007,117.929596 110.194305,116.997894 110.194305,115.849518 C110.194305,114.701141 111.126007,113.76944 112.274383,113.76944 L126.817596,113.76944 C127.967056,113.76944 128.897674,114.701141 128.897674,115.849518 C128.897674,116.997894 127.967056,117.929596 126.81868,117.929596 L126.81868,117.929596 Z" id="Path" fill="#E7E7E7"></path>
            <path d="M105.002777,117.929596 L101.669235,117.929596 C100.520859,117.929596 99.589157,116.997894 99.589157,115.849518 C99.589157,114.701141 100.520859,113.76944 101.669235,113.76944 L105.002777,113.76944 C106.152237,113.76944 107.082855,114.701141 107.082855,115.849518 C107.082855,116.997894 106.151154,117.929596 105.002777,117.929596 L105.002777,117.929596 Z" id="Path" fill="#E7E7E7"></path>
            <path d="M17.7900848,12.3591309 C17.7900848,14.6472168 15.9353484,16.5008698 13.6483461,16.5008698 C11.3602601,16.5008698 9.50552382,14.6472168 9.50552382,12.3591309 C9.50552382,10.0721282 11.3602601,8.2173919 13.6483461,8.2173919 C15.9353484,8.2173919 17.7900848,10.0721282 17.7900848,12.3591309 Z" id="Path" fill="#FF5770"></path>
            <path d="M33.7850189,12.3591309 C33.7850189,14.6472168 31.9313658,16.5008698 29.6432799,16.5008698 C27.3562775,16.5008698 25.5015412,14.6472168 25.5015412,12.3591309 C25.5015412,10.0721282 27.3562775,8.2173919 29.6432799,8.2173919 C31.9313658,8.2173919 33.7850189,10.0721282 33.7850189,12.3591309 Z" id="Path" fill="#FFD86E"></path>
            <path d="M49.7810365,12.3591309 C49.7810365,14.6472168 47.9263002,16.5008698 45.6392976,16.5008698 C43.3512116,16.5008698 41.4975586,14.6472168 41.4975586,12.3591309 C41.4975586,10.0721282 43.3512116,8.2173919 45.6392976,8.2173919 C47.9263002,8.2173919 49.7810365,10.0721282 49.7810365,12.3591309 Z" id="Path" fill="#80E0DC"></path>
            <path d="M17.7879182,12.3602142 C17.7879182,14.6472168 15.9353484,16.4997865 13.6494294,16.4997865 C12.5411377,16.4997865 11.5336,16.0653533 10.7914886,15.35466 C13.0319061,15.3059082 14.8368073,13.4739227 14.8368073,11.2183381 C14.8368073,10.0374603 14.3427888,8.97467041 13.5519256,8.22172539 C13.5833434,8.2184752 13.6180113,8.2184752 13.6494294,8.2184752 C15.9353484,8.2184752 17.7879182,10.0710449 17.7879182,12.3602142 Z" id="Path" fill="#FF435F"></path>
            <path d="M33.7839355,12.3602142 C33.7839355,14.6472168 31.9313658,16.4997865 29.6421966,16.4997865 C28.5349885,16.4997865 27.5307007,16.0653533 26.7853394,15.35466 C29.029007,15.3059082 30.8328247,13.4739227 30.8328247,11.2183381 C30.8328247,10.0374603 30.3388062,8.97467041 29.5490266,8.22172539 C29.579361,8.2184752 29.6107788,8.2184752 29.6432799,8.2184752 C31.9324494,8.2184752 33.7839355,10.0710449 33.7839355,12.3602142 Z" id="Path" fill="#FFB509"></path>
            <path d="M49.7810365,12.3602142 C49.7810365,14.6472168 47.9252166,16.4997865 45.6392976,16.4997865 C44.5310059,16.4997865 43.5267181,16.0653533 42.7813567,15.35466 C45.0250244,15.3059082 46.8266755,13.4739227 46.8266755,11.2183381 C46.8266755,10.0374603 46.3326569,8.97467041 45.5417938,8.22172539 C45.5732115,8.2184752 45.6078795,8.2184752 45.6392976,8.2184752 C47.9252166,8.2184752 49.7810365,10.0710449 49.7810365,12.3602142 Z" id="Path" fill="#00A8B0"></path>
        </g>
    </g>
</svg>