<?xml version="1.0" encoding="UTF-8"?>
<svg width="1110px" height="1110px" viewBox="0 0 1110 1110" version="1.1" xmlns="http://www.w3.org/2000/svg" xmlns:xlink="http://www.w3.org/1999/xlink">
    <!-- Generator: Sketch 53.2 (72643) - https://sketchapp.com -->
    <title>findafilm</title>
    <desc>Created with Sketch.</desc>
    <defs>
        <circle id="path-1" cx="511" cy="511" r="511"></circle>
        <filter x="-7.5%" y="-5.4%" width="115.1%" height="115.1%" filterUnits="objectBoundingBox" id="filter-2">
            <feOffset dx="0" dy="22" in="SourceAlpha" result="shadowOffsetOuter1"></feOffset>
            <feGaussianBlur stdDeviation="22" in="shadowOffsetOuter1" result="shadowBlurOuter1"></feGaussianBlur>
            <feColorMatrix values="0 0 0 0 0   0 0 0 0 0   0 0 0 0 0  0 0 0 0.139750874 0" type="matrix" in="shadowBlurOuter1"></feColorMatrix>
        </filter>
    </defs>
    <g id="findafilm" stroke="none" stroke-width="1" fill="none" fill-rule="evenodd">
        <g id="Group-2" transform="translate(44.000000, 22.000000)">
            <g id="path-1-copy">
                <use fill="black" fill-opacity="1" filter="url(#filter-2)" xlink:href="#path-1"></use>
                <use fill="#FFFFFF" fill-rule="evenodd" xlink:href="#path-1"></use>
            </g>
            <g id="access" transform="translate(178.000000, 217.000000)" fill-rule="nonzero">
                <g id="Group" transform="translate(13.007812, 14.309735)">
                    <path d="M56.3641523,113.176991 L583.61502,113.176991 C583.61502,143.704858 608.59132,168.684451 639.116754,168.684451 L639.116754,390.701283 C608.592621,390.701283 583.61502,415.676973 583.61502,446.204841 L56.3641523,446.204841 C56.3641523,415.679575 31.3904531,390.701283 0.867621094,390.701283 L0.867621094,168.684451 C31.3904531,168.684451 56.3641523,143.704858 56.3641523,113.176991 Z" id="Path" fill="#FE3646"></path>
                    <rect id="Rectangle" fill="#20E1FF" x="70.2421875" y="182.560991" width="499.497398" height="194.266354"></rect>
                    <path d="M270.609328,113.176991 L382.956504,0.820858407 C402.74659,20.6112212 435.13084,20.6112212 454.917023,0.820858407 L567.261598,113.176991 L270.609328,113.176991 L270.609328,113.176991 Z M369.372445,446.199637 L257.022668,558.558372 C237.237785,538.768009 204.857438,538.768009 185.068652,558.558372 L72.718875,446.199637 L369.372445,446.199637 Z" id="Shape" fill="#17A2B8"></path>
                </g>
                <g id="Group" fill="#000003">
                    <path d="M652.124566,169.113743 C629.172281,169.113743 610.499566,150.43954 610.499566,127.486726 C610.499566,119.821912 604.287035,113.610186 596.624133,113.610186 L586.020164,113.610186 L477.740531,5.3180177 C475.137668,2.71624779 471.607348,1.25275221 467.927438,1.25275221 C464.247527,1.25275221 460.718508,2.7149469 458.116945,5.3180177 C451.166871,12.268646 441.87409,16.0958496 431.947828,16.0958496 C422.024168,16.0958496 412.730086,12.268646 405.781313,5.3180177 C400.360957,-0.101469027 391.57548,-0.101469027 386.156426,5.3180177 L277.87159,113.610186 L69.3719648,113.610186 C61.7090625,113.610186 55.4965313,119.823212 55.4965313,127.486726 C55.4965313,150.43954 36.826418,169.113743 13.8767344,169.113743 C6.21253125,169.113743 0,175.32677 0,182.991584 L0,405.008416 C0,412.671929 6.21253125,418.884956 13.8754336,418.884956 C36.8251172,418.884956 55.4952305,437.557858 55.4952305,460.509372 C55.4952305,468.174186 61.7090625,474.385912 69.3706641,474.385912 L79.9759336,474.385912 L188.26207,582.680681 C190.971598,585.390425 194.52273,586.744646 198.073863,586.744646 C201.624996,586.744646 205.17743,585.389124 207.884355,582.680681 C214.83573,575.730053 224.128512,571.90285 234.052172,571.90285 C243.974531,571.90285 253.268613,575.730053 260.216086,582.679381 C262.818949,585.28115 266.34927,586.745947 270.02918,586.745947 L270.02918,586.745947 C273.70909,586.745947 277.238109,585.283752 279.839672,582.681982 L388.127109,474.387212 L596.62023,474.387212 C604.284434,474.387212 610.495664,468.174186 610.495664,460.510673 C610.495664,437.559159 629.168379,418.886257 652.120664,418.886257 C659.783566,418.886257 665.997398,412.67323 665.997398,405.009717 L665.997398,182.991584 C666,175.32677 659.786168,169.113743 652.124566,169.113743 Z M397.020551,33.6994248 C407.330543,40.3079204 419.353664,43.8489292 431.943926,43.8489292 C444.535488,43.8489292 456.55991,40.3079204 466.869902,33.7007257 L546.771691,113.610186 L397.595496,113.610186 C401.744988,108.169885 401.346949,100.37108 396.375363,95.3990973 C390.955008,89.9809115 382.170832,89.9809115 376.750477,95.4003982 L358.544742,113.610186 L317.11616,113.610186 L397.020551,33.6994248 Z M268.976848,554.297973 C258.666855,547.688177 246.645035,544.148469 234.054773,544.148469 C221.464512,544.148469 209.441391,547.689478 199.131398,554.297973 L119.225707,474.385912 L263.516168,474.385912 C259.362773,479.827513 259.759512,487.627619 264.733699,492.599602 C267.441926,495.308044 270.993059,496.662265 274.544191,496.662265 C278.096625,496.662265 281.647758,495.306743 284.355984,492.595699 L302.561719,474.38331 L348.881238,474.38331 L268.976848,554.297973 Z M638.247832,392.523823 C611.10443,398.056487 589.672758,419.489867 584.141836,446.632832 L382.380258,446.632832 L85.7253867,446.632832 L81.8555625,446.632832 C76.3233398,419.489867 54.891668,398.059088 27.752168,392.523823 L27.752168,195.473575 C54.8929687,189.940912 76.3233398,168.50623 81.8555625,141.363265 L283.61584,141.363265 L580.26941,141.363265 L580.298027,141.363265 L584.141836,141.363265 C589.674059,168.507531 611.107031,189.940912 638.249133,195.473575 L638.249133,392.523823 L638.247832,392.523823 Z" id="Shape"></path>
                    <path d="M582.748699,182.988982 L83.25,182.988982 C75.5870977,182.988982 69.3745664,189.202009 69.3745664,196.865522 L69.3745664,391.130575 C69.3745664,398.794088 75.5883984,405.007115 83.25,405.007115 L582.75,405.007115 C590.412902,405.007115 596.625434,398.792788 596.625434,391.130575 L596.625434,196.866823 C596.625434,189.202009 590.411602,182.988982 582.748699,182.988982 Z M97.1254336,210.743363 L568.873266,210.743363 L568.873266,377.254035 L97.1254336,377.254035 L97.1254336,210.743363 Z" id="Shape"></path>
                    <path d="M236.549672,501.165929 L236.315531,501.400088 C230.896477,506.819575 230.896477,515.604451 236.315531,521.025239 C239.023758,523.734982 242.577492,525.090504 246.127324,525.090504 C249.678457,525.090504 253.230891,523.736283 255.939117,521.025239 L256.173258,520.79108 C261.591012,515.371593 261.591012,506.586717 256.173258,501.165929 C250.754203,495.746442 241.968727,495.746442 236.549672,501.165929 Z" id="Path"></path>
                    <path d="M414.748898,90.8980354 C418.266211,90.8980354 421.787426,89.568531 424.490449,86.9043186 L424.72459,86.6740619 C430.183969,81.2936018 430.247707,72.5087257 424.867676,67.0489115 C419.488945,61.5903982 410.70477,61.5266549 405.24409,66.9058142 L405.009949,67.1373717 C399.55057,72.516531 399.488133,81.302708 404.865563,86.7625221 C407.578992,89.5164956 411.161344,90.8980354 414.748898,90.8980354 Z" id="Path"></path>
                </g>
                <path d="M153.303574,313.96208 L153.303574,321.318584 L126.078223,321.318584 L126.078223,313.96208 C127.487409,313.454732 129.601158,312.750093 132.419531,311.848142 L132.419531,271.683319 L126.078223,269.146593 L126.078223,262.128319 L145.524902,261.705531 L169.199121,261.705531 L169.199121,277.77146 L161.335898,277.77146 L159.222129,271.683319 L145.524902,271.683319 L145.524902,286.65 L163.026914,286.65 L163.026914,295.951327 L145.524902,295.951327 L145.524902,311.848142 C149.921565,313.031953 152.51443,313.736592 153.303574,313.96208 Z M174.272168,276.333982 L193.465195,275.657522 L193.465195,312.440044 L199.38375,314.553982 L199.38375,321.318584 L174.272168,321.318584 L174.272168,314.553982 L181.03623,312.440044 L181.03623,284.789735 L174.272168,283.098584 L174.272168,276.333982 Z M179.429766,261.705531 C179.429766,259.39428 180.14844,257.548126 181.585811,256.167013 C183.023181,254.7859 184.728271,254.095354 186.701133,254.095354 C191.436,254.095354 193.803398,256.632054 193.803398,261.705531 C193.803398,264.073153 193.084724,265.947493 191.647354,267.328606 C190.209983,268.709719 188.561259,269.400265 186.701133,269.400265 C184.390067,269.400265 182.600426,268.737905 181.332158,267.413164 C180.06389,266.088423 179.429766,264.185897 179.429766,261.705531 Z M204.541348,276.333982 L222.043359,275.657522 L222.635215,281.491991 C223.255257,280.984643 224.072573,280.378654 225.087187,279.674004 C226.101802,278.969355 227.975992,278.011046 230.709814,276.799049 C233.443637,275.587051 235.93786,274.981062 238.192559,274.981062 C242.251016,274.981062 245.365272,276.319876 247.53542,278.997544 C249.705567,281.675213 250.790625,285.353428 250.790625,290.032301 L250.790625,312.440044 C251.523402,312.665532 252.566185,313.031944 253.919004,313.539292 C255.271823,314.04664 256.201872,314.384866 256.70918,314.553982 L256.70918,321.318584 L233.880469,321.318584 L233.880469,314.553982 L238.36166,312.440044 L238.36166,291.977124 C238.36166,290.004105 237.840269,288.383436 236.797471,287.115066 C235.754673,285.846697 234.359599,285.212522 232.612207,285.212522 C231.033918,285.212522 229.497927,285.621213 228.004189,286.438606 C226.510452,287.256 225.397211,288.059288 224.664434,288.848496 L223.565273,290.032301 L223.565273,312.440044 L227.961914,314.553982 L227.961914,321.318584 L204.541348,321.318584 L204.541348,314.553982 L211.051758,312.440044 L211.051758,284.789735 L204.541348,283.098584 L204.541348,276.333982 Z M309.976172,320.726681 L292.220508,321.318584 L291.459551,316.837035 C287.9084,320.388469 283.65272,322.164159 278.692383,322.164159 C272.886533,322.164159 268.546303,320.19117 265.671562,316.245133 C262.796822,312.299095 261.359473,306.74654 261.359473,299.587301 C261.359473,291.582482 263.374579,285.452123 267.404854,281.19604 C271.435128,276.939957 277.395898,274.811947 285.287344,274.811947 C287.14747,274.811947 288.979386,275.093802 290.783145,275.657522 L290.783145,264.918717 L284.019082,263.227566 L284.019082,256.462965 L303.212109,255.786504 L303.212109,312.270929 L309.976172,313.96208 L309.976172,320.726681 Z M290.783145,307.45115 L290.783145,285.804425 C289.373958,284.958845 287.175659,284.536062 284.188184,284.536062 C277.705925,284.536062 274.464844,289.327607 274.464844,298.910841 C274.464844,307.817611 277.170442,312.270929 282.581719,312.270929 C284.160008,312.270929 285.639632,311.862239 287.020635,311.044845 C288.401638,310.227452 289.373962,309.424163 289.937637,308.634956 L290.783145,307.45115 Z M359.692031,320.726681 L342.950977,321.318584 L341.429062,315.822345 C340.921755,316.273321 340.245356,316.851125 339.399844,317.555774 C338.554332,318.260424 336.933791,319.20464 334.538174,320.388451 C332.142556,321.572263 329.8738,322.164159 327.731836,322.164159 C323.617011,322.164159 320.404113,321.008551 318.093047,318.697301 C315.781981,316.38605 314.626465,313.116526 314.626465,308.888628 C314.626465,299.587254 321.39046,294.936637 334.918652,294.936637 L340.837207,294.936637 L340.837207,290.285973 C340.837207,286.058076 338.667092,283.944159 334.326797,283.944159 C333.030345,283.944159 331.762096,284.056902 330.522012,284.282389 C329.281927,284.507877 328.351878,284.733362 327.731836,284.95885 L326.886328,285.212522 L325.618066,290.708761 L318.008496,290.708761 L317.416641,278.194248 C324.237104,275.939369 330.352883,274.811947 335.76416,274.811947 C342.190052,274.811947 346.727565,276.066204 349.376836,278.574757 C352.026107,281.083309 353.350723,285.409792 353.350723,291.554336 L353.350723,312.440044 L359.692031,313.96208 L359.692031,320.726681 Z M326.801777,307.620265 C326.801777,311.002583 328.464593,312.693717 331.790273,312.693717 C333.143093,312.693717 334.56635,312.285026 336.060088,311.467633 C337.553826,310.650239 338.723433,309.818765 339.568945,308.973186 L340.837207,307.789381 L340.837207,302.124027 L336.017812,302.124027 C332.748499,302.124027 330.395193,302.560903 328.957822,303.434668 C327.520452,304.308434 326.801777,305.703619 326.801777,307.620265 Z" id="Finda" fill="#23001E"></path>
                <path d="M373.558359,276.503097 L373.558359,272.698009 C373.558359,267.173556 375.108442,262.804795 378.208652,259.591593 C381.308863,256.378391 385.761826,254.771814 391.567676,254.771814 C394.273314,254.771814 396.852087,255.039577 399.304072,255.575111 C401.756057,256.110644 403.545697,256.632077 404.673047,257.139425 L406.364062,257.900442 L406.11041,270.414956 L398.754492,270.414956 L397.48623,264.157699 C396.077044,263.932211 394.442412,263.819469 392.582285,263.819469 C388.24199,263.819469 386.071875,266.299798 386.071875,271.260531 L386.071875,276.503097 L397.063477,276.503097 L396.809824,284.95885 L386.071875,284.95885 L386.071875,312.440044 L394.18875,314.553982 L394.18875,321.318584 L366.794297,321.318584 L366.794297,314.553982 L373.558359,312.440044 L373.558359,284.95885 L365.948789,284.95885 L365.948789,277.77146 L373.558359,276.503097 Z M403.827539,276.333982 L423.020566,275.657522 L423.020566,312.440044 L428.939121,314.553982 L428.939121,321.318584 L403.827539,321.318584 L403.827539,314.553982 L410.591602,312.440044 L410.591602,284.789735 L403.827539,283.098584 L403.827539,276.333982 Z M408.985137,261.705531 C408.985137,259.39428 409.703811,257.548126 411.141182,256.167013 C412.578552,254.7859 414.283642,254.095354 416.256504,254.095354 C420.991371,254.095354 423.35877,256.632054 423.35877,261.705531 C423.35877,264.073153 422.640095,265.947493 421.202725,267.328606 C419.765354,268.709719 418.11663,269.400265 416.256504,269.400265 C413.945438,269.400265 412.155797,268.737905 410.887529,267.413164 C409.619261,266.088423 408.985137,264.185897 408.985137,261.705531 Z M433.251211,256.462965 L452.782441,255.786504 L452.782441,312.440044 L460.814766,314.553982 L460.814766,321.318584 L433.251211,321.318584 L433.251211,314.553982 L440.015273,312.440044 L440.015273,264.918717 L433.251211,263.227566 L433.251211,256.462965 Z M536.825918,290.032301 L536.825918,312.440044 L542.575371,314.553982 L542.575371,321.318584 L519.915762,321.318584 L519.915762,314.553982 L524.396953,312.440044 L524.396953,292.569027 C524.396953,290.201404 524.016478,288.453899 523.255518,287.32646 C522.494557,286.199021 521.240399,285.63531 519.493008,285.63531 C517.858351,285.63531 516.265994,286.001722 514.715889,286.734558 C513.165783,287.467393 512.024359,288.200218 511.291582,288.933053 L510.107871,290.032301 L510.107871,312.440044 L514.504512,314.553982 L514.504512,321.318584 L493.197715,321.318584 L493.197715,314.553982 L497.594355,312.440044 L497.594355,292.569027 C497.594355,290.145032 497.227972,288.383435 496.495195,287.284181 C495.762418,286.184928 494.522352,285.63531 492.774961,285.63531 C491.140304,285.63531 489.533856,286.001722 487.955566,286.734558 C486.377277,287.467393 485.193578,288.200218 484.404434,288.933053 L483.305273,290.032301 L483.305273,312.440044 L487.786465,314.553982 L487.786465,321.318584 L464.365898,321.318584 L464.365898,314.553982 L470.876309,312.440044 L470.876309,284.705177 L464.450449,283.098584 L464.450449,276.333982 L481.86791,275.657522 L482.459766,281.661106 C483.02344,281.153759 483.78439,280.519583 484.742637,279.758562 C485.700884,278.99754 487.476432,277.98286 490.069336,276.714491 C492.66224,275.446122 495.057821,274.811947 497.256152,274.811947 C502.836532,274.811947 506.669462,277.235905 508.755059,282.083894 C509.600571,281.238314 510.586987,280.364562 511.714336,279.462611 C512.841685,278.560659 514.617234,277.560072 517.041035,276.460819 C519.464836,275.361565 521.804051,274.811947 524.05875,274.811947 C528.28631,274.811947 531.471024,276.136668 533.612988,278.78615 C535.754952,281.435633 536.825918,285.184312 536.825918,290.032301 Z" id="film" fill="#FE3646"></path>
            </g>
        </g>
    </g>
</svg>